<?xml version="1.0" encoding="us-ascii" standalone="no"?><svg xmlns="http://www.w3.org/2000/svg" xmlns:xlink="http://www.w3.org/1999/xlink" contentStyleType="text/css" height="619px" preserveAspectRatio="none" style="width:1582px;height:619px;background:#FFFFFF;" version="1.1" viewBox="0 0 1582 619" width="1582px" zoomAndPan="magnify"><defs/><g><!--cluster User Interface--><g id="cluster_User Interface"><path d="M8.5,6 L109.5,6 A3.75,3.75 0 0 1 112,8.5 L119,29.6094 L484.5,29.6094 A2.5,2.5 0 0 1 487,32.1094 L487,283.5 A2.5,2.5 0 0 1 484.5,286 L8.5,286 A2.5,2.5 0 0 1 6,283.5 L6,8.5 A2.5,2.5 0 0 1 8.5,6 " fill="none" style="stroke:#000000;stroke-width:1.5;"/><line style="stroke:#000000;stroke-width:1.5;" x1="6" x2="119" y1="29.6094" y2="29.6094"/><text fill="#000000" font-family="sans-serif" font-size="14" font-weight="bold" lengthAdjust="spacing" textLength="100" x="10" y="22.5332">User Interface</text></g><!--cluster Business Logic--><g id="cluster_Business Logic"><path d="M884.5,170 L992.5,170 A3.75,3.75 0 0 1 995,172.5 L1002,193.6094 L1195.5,193.6094 A2.5,2.5 0 0 1 1198,196.1094 L1198,465.5 A2.5,2.5 0 0 1 1195.5,468 L884.5,468 A2.5,2.5 0 0 1 882,465.5 L882,172.5 A2.5,2.5 0 0 1 884.5,170 " fill="none" style="stroke:#000000;stroke-width:1.5;"/><line style="stroke:#000000;stroke-width:1.5;" x1="882" x2="1002" y1="193.6094" y2="193.6094"/><text fill="#000000" font-family="sans-serif" font-size="14" font-weight="bold" lengthAdjust="spacing" textLength="107" x="886" y="186.5332">Business Logic</text></g><!--cluster Data Management--><g id="cluster_Data Management"><path d="M454.5,352 L581.5,352 A3.75,3.75 0 0 1 584,354.5 L591,375.6094 L839.5,375.6094 A2.5,2.5 0 0 1 842,378.1094 L842,465.5 A2.5,2.5 0 0 1 839.5,468 L454.5,468 A2.5,2.5 0 0 1 452,465.5 L452,354.5 A2.5,2.5 0 0 1 454.5,352 " fill="none" style="stroke:#000000;stroke-width:1.5;"/><line style="stroke:#000000;stroke-width:1.5;" x1="452" x2="591" y1="375.6094" y2="375.6094"/><text fill="#000000" font-family="sans-serif" font-size="14" font-weight="bold" lengthAdjust="spacing" textLength="126" x="456" y="368.5332">Data Management</text></g><!--cluster Authentication & Authorization--><g id="cluster_Authentication &amp; Authorization"><path d="M529.5,170 L743.5,170 A3.75,3.75 0 0 1 746,172.5 L753,193.6094 L765.5,193.6094 A2.5,2.5 0 0 1 768,196.1094 L768,283.5 A2.5,2.5 0 0 1 765.5,286 L529.5,286 A2.5,2.5 0 0 1 527,283.5 L527,172.5 A2.5,2.5 0 0 1 529.5,170 " fill="none" style="stroke:#000000;stroke-width:1.5;"/><line style="stroke:#000000;stroke-width:1.5;" x1="527" x2="753" y1="193.6094" y2="193.6094"/><text fill="#000000" font-family="sans-serif" font-size="14" font-weight="bold" lengthAdjust="spacing" textLength="213" x="531" y="186.5332">Authentication &amp; Authorization</text></g><!--cluster Integration--><g id="cluster_Integration"><path d="M1240.5,391.64 L1318.5,391.64 A3.75,3.75 0 0 1 1321,394.14 L1328,415.2494 L1572.5,415.2494 A2.5,2.5 0 0 1 1575,417.7494 L1575,609.5 A2.5,2.5 0 0 1 1572.5,612 L1240.5,612 A2.5,2.5 0 0 1 1238,609.5 L1238,394.14 A2.5,2.5 0 0 1 1240.5,391.64 " fill="none" style="stroke:#000000;stroke-width:1.5;"/><line style="stroke:#000000;stroke-width:1.5;" x1="1238" x2="1328" y1="415.2494" y2="415.2494"/><text fill="#000000" font-family="sans-serif" font-size="14" font-weight="bold" lengthAdjust="spacing" textLength="77" x="1242" y="408.1732">Integration</text></g><!--entity HomePage--><g id="elem_HomePage"><rect fill="#F1F1F1" height="47.6094" rx="2.5" ry="2.5" style="stroke:#181818;stroke-width:0.5;" width="109" x="30.5" y="50"/><rect fill="#F1F1F1" height="10" style="stroke:#181818;stroke-width:0.5;" width="15" x="119.5" y="55"/><rect fill="#F1F1F1" height="2" style="stroke:#181818;stroke-width:0.5;" width="4" x="117.5" y="57"/><rect fill="#F1F1F1" height="2" style="stroke:#181818;stroke-width:0.5;" width="4" x="117.5" y="61"/><text fill="#000000" font-family="sans-serif" font-size="14" lengthAdjust="spacing" textLength="69" x="45.5" y="84.5332">HomePage</text></g><!--entity SearchPage--><g id="elem_SearchPage"><rect fill="#F1F1F1" height="47.6094" rx="2.5" ry="2.5" style="stroke:#181818;stroke-width:0.5;" width="118" x="175" y="50"/><rect fill="#F1F1F1" height="10" style="stroke:#181818;stroke-width:0.5;" width="15" x="273" y="55"/><rect fill="#F1F1F1" height="2" style="stroke:#181818;stroke-width:0.5;" width="4" x="271" y="57"/><rect fill="#F1F1F1" height="2" style="stroke:#181818;stroke-width:0.5;" width="4" x="271" y="61"/><text fill="#000000" font-family="sans-serif" font-size="14" lengthAdjust="spacing" textLength="78" x="190" y="84.5332">SearchPage</text></g><!--entity ReportPage--><g id="elem_ReportPage"><rect fill="#F1F1F1" height="47.6094" rx="2.5" ry="2.5" style="stroke:#181818;stroke-width:0.5;" width="116" x="328" y="50"/><rect fill="#F1F1F1" height="10" style="stroke:#181818;stroke-width:0.5;" width="15" x="424" y="55"/><rect fill="#F1F1F1" height="2" style="stroke:#181818;stroke-width:0.5;" width="4" x="422" y="57"/><rect fill="#F1F1F1" height="2" style="stroke:#181818;stroke-width:0.5;" width="4" x="422" y="61"/><text fill="#000000" font-family="sans-serif" font-size="14" lengthAdjust="spacing" textLength="76" x="343" y="84.5332">ReportPage</text></g><!--entity LoginPage--><g id="elem_LoginPage"><rect fill="#F1F1F1" height="47.6094" rx="2.5" ry="2.5" style="stroke:#181818;stroke-width:0.5;" width="108" x="180" y="214"/><rect fill="#F1F1F1" height="10" style="stroke:#181818;stroke-width:0.5;" width="15" x="268" y="219"/><rect fill="#F1F1F1" height="2" style="stroke:#181818;stroke-width:0.5;" width="4" x="266" y="221"/><rect fill="#F1F1F1" height="2" style="stroke:#181818;stroke-width:0.5;" width="4" x="266" y="225"/><text fill="#000000" font-family="sans-serif" font-size="14" lengthAdjust="spacing" textLength="68" x="195" y="248.5332">LoginPage</text></g><!--entity MapView--><g id="elem_MapView"><rect fill="#F1F1F1" height="47.6094" rx="2.5" ry="2.5" style="stroke:#181818;stroke-width:0.5;" width="96" x="37" y="214"/><rect fill="#F1F1F1" height="10" style="stroke:#181818;stroke-width:0.5;" width="15" x="113" y="219"/><rect fill="#F1F1F1" height="2" style="stroke:#181818;stroke-width:0.5;" width="4" x="111" y="221"/><rect fill="#F1F1F1" height="2" style="stroke:#181818;stroke-width:0.5;" width="4" x="111" y="225"/><text fill="#000000" font-family="sans-serif" font-size="14" lengthAdjust="spacing" textLength="56" x="52" y="248.5332">MapView</text></g><!--entity Search--><g id="elem_Search"><rect fill="#F1F1F1" height="47.6094" rx="2.5" ry="2.5" style="stroke:#181818;stroke-width:0.5;" width="85" x="946.5" y="214"/><rect fill="#F1F1F1" height="10" style="stroke:#181818;stroke-width:0.5;" width="15" x="1011.5" y="219"/><rect fill="#F1F1F1" height="2" style="stroke:#181818;stroke-width:0.5;" width="4" x="1009.5" y="221"/><rect fill="#F1F1F1" height="2" style="stroke:#181818;stroke-width:0.5;" width="4" x="1009.5" y="225"/><text fill="#000000" font-family="sans-serif" font-size="14" lengthAdjust="spacing" textLength="45" x="961.5" y="248.5332">Search</text></g><!--entity Report--><g id="elem_Report"><rect fill="#F1F1F1" height="47.6094" rx="2.5" ry="2.5" style="stroke:#181818;stroke-width:0.5;" width="83" x="1066.5" y="214"/><rect fill="#F1F1F1" height="10" style="stroke:#181818;stroke-width:0.5;" width="15" x="1129.5" y="219"/><rect fill="#F1F1F1" height="2" style="stroke:#181818;stroke-width:0.5;" width="4" x="1127.5" y="221"/><rect fill="#F1F1F1" height="2" style="stroke:#181818;stroke-width:0.5;" width="4" x="1127.5" y="225"/><text fill="#000000" font-family="sans-serif" font-size="14" lengthAdjust="spacing" textLength="43" x="1081.5" y="248.5332">Report</text></g><!--entity AccessibilityIssue--><g id="elem_AccessibilityIssue"><rect fill="#F1F1F1" height="47.6094" rx="2.5" ry="2.5" style="stroke:#181818;stroke-width:0.5;" width="149" x="914.5" y="396"/><rect fill="#F1F1F1" height="10" style="stroke:#181818;stroke-width:0.5;" width="15" x="1043.5" y="401"/><rect fill="#F1F1F1" height="2" style="stroke:#181818;stroke-width:0.5;" width="4" x="1041.5" y="403"/><rect fill="#F1F1F1" height="2" style="stroke:#181818;stroke-width:0.5;" width="4" x="1041.5" y="407"/><text fill="#000000" font-family="sans-serif" font-size="14" lengthAdjust="spacing" textLength="109" x="929.5" y="430.5332">AccessibilityIssue</text></g><!--entity Place--><g id="elem_Place"><rect fill="#F1F1F1" height="47.6094" rx="2.5" ry="2.5" style="stroke:#181818;stroke-width:0.5;" width="75" x="1098.5" y="396"/><rect fill="#F1F1F1" height="10" style="stroke:#181818;stroke-width:0.5;" width="15" x="1153.5" y="401"/><rect fill="#F1F1F1" height="2" style="stroke:#181818;stroke-width:0.5;" width="4" x="1151.5" y="403"/><rect fill="#F1F1F1" height="2" style="stroke:#181818;stroke-width:0.5;" width="4" x="1151.5" y="407"/><text fill="#000000" font-family="sans-serif" font-size="14" lengthAdjust="spacing" textLength="35" x="1113.5" y="430.5332">Place</text></g><!--entity DatabaseHandler--><g id="elem_DatabaseHandler"><rect fill="#F1F1F1" height="47.6094" rx="2.5" ry="2.5" style="stroke:#181818;stroke-width:0.5;" width="150" x="668" y="396"/><rect fill="#F1F1F1" height="10" style="stroke:#181818;stroke-width:0.5;" width="15" x="798" y="401"/><rect fill="#F1F1F1" height="2" style="stroke:#181818;stroke-width:0.5;" width="4" x="796" y="403"/><rect fill="#F1F1F1" height="2" style="stroke:#181818;stroke-width:0.5;" width="4" x="796" y="407"/><text fill="#000000" font-family="sans-serif" font-size="14" lengthAdjust="spacing" textLength="110" x="683" y="430.5332">DatabaseHandler</text></g><!--entity DataRepository--><g id="elem_DataRepository"><rect fill="#F1F1F1" height="47.6094" rx="2.5" ry="2.5" style="stroke:#181818;stroke-width:0.5;" width="138" x="495" y="396"/><rect fill="#F1F1F1" height="10" style="stroke:#181818;stroke-width:0.5;" width="15" x="613" y="401"/><rect fill="#F1F1F1" height="2" style="stroke:#181818;stroke-width:0.5;" width="4" x="611" y="403"/><rect fill="#F1F1F1" height="2" style="stroke:#181818;stroke-width:0.5;" width="4" x="611" y="407"/><text fill="#000000" font-family="sans-serif" font-size="14" lengthAdjust="spacing" textLength="98" x="510" y="430.5332">DataRepository</text></g><!--entity AccountManagement--><g id="elem_AccountManagement"><rect fill="#F1F1F1" height="47.6094" rx="2.5" ry="2.5" style="stroke:#181818;stroke-width:0.5;" width="173" x="570.5" y="214"/><rect fill="#F1F1F1" height="10" style="stroke:#181818;stroke-width:0.5;" width="15" x="723.5" y="219"/><rect fill="#F1F1F1" height="2" style="stroke:#181818;stroke-width:0.5;" width="4" x="721.5" y="221"/><rect fill="#F1F1F1" height="2" style="stroke:#181818;stroke-width:0.5;" width="4" x="721.5" y="225"/><text fill="#000000" font-family="sans-serif" font-size="14" lengthAdjust="spacing" textLength="133" x="585.5" y="248.5332">AccountManagement</text></g><!--entity ExternalAPI--><g id="elem_ExternalAPI"><rect fill="#F1F1F1" height="47.6094" rx="2.5" ry="2.5" style="stroke:#181818;stroke-width:0.5;" width="112" x="1439" y="540"/><rect fill="#F1F1F1" height="10" style="stroke:#181818;stroke-width:0.5;" width="15" x="1531" y="545"/><rect fill="#F1F1F1" height="2" style="stroke:#181818;stroke-width:0.5;" width="4" x="1529" y="547"/><rect fill="#F1F1F1" height="2" style="stroke:#181818;stroke-width:0.5;" width="4" x="1529" y="551"/><text fill="#000000" font-family="sans-serif" font-size="14" lengthAdjust="spacing" textLength="72" x="1454" y="574.5332">ExternalAPI</text></g><!--entity LocationService--><g id="elem_LocationService"><rect fill="#F1F1F1" height="47.6094" rx="2.5" ry="2.5" style="stroke:#181818;stroke-width:0.5;" width="141" x="1262.5" y="540"/><rect fill="#F1F1F1" height="10" style="stroke:#181818;stroke-width:0.5;" width="15" x="1383.5" y="545"/><rect fill="#F1F1F1" height="2" style="stroke:#181818;stroke-width:0.5;" width="4" x="1381.5" y="547"/><rect fill="#F1F1F1" height="2" style="stroke:#181818;stroke-width:0.5;" width="4" x="1381.5" y="551"/><text fill="#000000" font-family="sans-serif" font-size="14" lengthAdjust="spacing" textLength="101" x="1277.5" y="574.5332">LocationService</text></g><!--link User Interface to Business Logic--><g id="link_User Interface_Business Logic"><path d="M487.3615,76.4198 C487.5156,76.4468 487.6718,76.4742 487.8299,76.5019 C492.8893,77.3906 499.9764,78.6746 508.7059,80.3561 C526.165,83.7191 550.1938,88.6719 577.71,95.2313 C632.7425,108.35 701.725,127.895 760,154 C790.79,167.795 822.7625,188.1175 847.295,205.2 C859.5613,213.7412 869.9675,221.4725 877.4359,227.1728 C878.3695,227.8854 879.2571,228.5662 880.0968,229.2128 C880.5166,229.5362 880.9244,229.851 881.32,230.157 C881.5178,230.31 876.9705,226.7847 877.1621,226.9332 " fill="none" id="User Interface-to-Business Logic" style="stroke:#181818;stroke-width:1.0;stroke-dasharray:7.0,7.0;"/><polygon fill="#181818" points="881.9041,230.6093,877.2419,221.9338,877.9524,227.5459,872.3404,228.2565,881.9041,230.6093" style="stroke:#181818;stroke-width:1.0;"/><text fill="#000000" font-family="sans-serif" font-size="13" lengthAdjust="spacing" textLength="108" x="740" y="142.4951">Interacts with logic</text></g><!--link Business Logic to Data Management--><g id="link_Business Logic_Data Management"><path d="M881.7554,244.0021 C881.5605,244.1181 881.3626,244.2359 881.1615,244.3554 C880.7593,244.5943 880.3448,244.8401 879.9181,245.0925 C879.0648,245.5972 878.1631,246.1283 877.2152,246.6837 C869.6316,251.1275 859.0906,257.1325 846.7363,263.705 C822.0275,276.85 790.065,292.265 760,302 C696.88,322.44 678.89,320.23 613,328 C598.19,329.75 490.38,326.36 479,336 C475.5025,338.9613 472.5734,342.4223 470.1264,346.2188 C469.5147,347.1679 468.933,348.138 468.3802,349.1265 C468.1038,349.6207 467.8345,350.1195 467.5723,350.6226 C467.4412,350.8742 467.3119,351.1268 467.1843,351.3805 C467.1205,351.5073 469.7158,346.2556 469.6528,346.3829 " fill="none" id="Business Logic-to-Data Management" style="stroke:#181818;stroke-width:1.0;stroke-dasharray:7.0,7.0;"/><polygon fill="#181818" points="466.9942,351.7617,474.568,345.4659,469.2097,347.2794,467.3963,341.9211,466.9942,351.7617" style="stroke:#181818;stroke-width:1.0;"/><text fill="#000000" font-family="sans-serif" font-size="13" lengthAdjust="spacing" textLength="87" x="734" y="324.4951">Accesses data</text></g><!--link User Interface to Authentication & Authorization--><g id="link_User Interface_Authentication &amp; Authorization"><path d="M487.0643,98.3309 C487.1414,98.5539 487.2189,98.7782 487.2968,99.0036 C487.6085,99.9053 487.9269,100.8261 488.2514,101.7648 C493.4441,116.7853 500.2281,136.4094 507.0113,156.0313 C513.7944,175.6531 520.5766,195.2728 525.7655,210.2845 C526.0898,211.2228 526.4079,212.143 526.7193,213.0441 C526.7972,213.2694 524.9145,207.8227 524.9916,208.0455 " fill="none" id="User Interface-to-Authentication &amp; Authorization" style="stroke:#181818;stroke-width:1.0;stroke-dasharray:7.0,7.0;"/><polygon fill="#181818" points="526.9517,213.7163,527.792,203.9034,525.3183,208.9907,520.231,206.5169,526.9517,213.7163" style="stroke:#181818;stroke-width:1.0;"/><text fill="#000000" font-family="sans-serif" font-size="13" lengthAdjust="spacing" textLength="138" x="503" y="142.4951">Manages authentication</text></g><!--link Authentication & Authorization to Data Management--><g id="link_Authentication &amp; Authorization_Data Management"><path d="M526.9368,250.3356 C526.679,250.7089 526.4162,251.0901 526.1488,251.4791 C525.6141,252.2571 525.0606,253.0662 524.49,253.905 C523.349,255.5825 522.1396,257.3784 520.8746,259.2805 C518.3447,263.0847 515.5925,267.3138 512.72,271.87 C501.23,290.095 487.815,313.555 479,336 C477.325,340.265 475.777,344.7142 474.3499,349.2405 C474.1715,349.8063 473.995,350.3733 473.8204,350.9412 C473.7331,351.2252 475.3895,345.7683 475.3031,346.0528 " fill="none" id="Authentication &amp; Authorization-to-Data Management" style="stroke:#181818;stroke-width:1.0;stroke-dasharray:7.0,7.0;"/><polygon fill="#181818" points="473.5598,351.7939,480.0022,344.3444,475.0126,347.0096,472.3474,342.02,473.5598,351.7939" style="stroke:#181818;stroke-width:1.0;"/><text fill="#000000" font-family="sans-serif" font-size="13" lengthAdjust="spacing" textLength="112" x="492" y="324.4951">Validates user data</text></g><!--link Business Logic to Integration--><g id="link_Business Logic_Integration"><path d="M1198.3486,340.9245 C1198.5086,341.0294 1198.6683,341.1347 1198.8279,341.2405 C1199.147,341.4521 1199.4653,341.6655 1199.7826,341.8807 C1200.4172,342.3111 1201.0483,342.7485 1201.6757,343.1927 C1202.9305,344.0809 1204.1707,344.9961 1205.3958,345.9352 C1210.2964,349.6919 1214.9559,353.8328 1219.3455,358.1763 C1228.1247,366.8631 1235.8244,376.36 1242.2138,385.2125 C1243.0124,386.3191 1243.7906,387.4156 1244.5479,388.4991 C1244.9265,389.0409 1245.2999,389.5795 1245.6681,390.1145 C1245.8521,390.382 1246.0349,390.6486 1246.2163,390.9142 C1246.307,391.0471 1246.3973,391.1796 1246.4874,391.312 C1246.5324,391.3782 1243.2068,386.4805 1243.2517,386.5465 " fill="none" id="Business Logic-to-Integration" style="stroke:#181818;stroke-width:1.0;stroke-dasharray:7.0,7.0;"/><polygon fill="#181818" points="1246.6222,391.5103,1244.8756,381.8176,1243.8134,387.3738,1238.2572,386.3116,1246.6222,391.5103" style="stroke:#181818;stroke-width:1.0;"/><text fill="#000000" font-family="sans-serif" font-size="13" lengthAdjust="spacing" textLength="215" x="1166" y="324.4951">Communicates with external services</text></g><!--link Integration to LocationService--><g id="link_Integration_LocationService"><path d="M1263.05,421.1 C1264.62,424.29 1299.5363,495.1288 1318.9563,534.5088 " fill="none" id="Integration-to-LocationService" style="stroke:#181818;stroke-width:1.0;stroke-dasharray:7.0,7.0;"/><polygon fill="#181818" points="1321.61,539.89,1321.2169,530.049,1319.3986,535.4056,1314.0419,533.5873,1321.61,539.89" style="stroke:#181818;stroke-width:1.0;"/><text fill="#000000" font-family="sans-serif" font-size="13" lengthAdjust="spacing" textLength="123" x="1307" y="506.4951">Queries location data</text></g><!--link HomePage to MapView--><g id="link_HomePage_MapView"><path d="M85,98.21 C85,129.01 85,177.06 85,207.83 " fill="none" id="HomePage-to-MapView" style="stroke:#181818;stroke-width:1.0;stroke-dasharray:7.0,7.0;"/><polygon fill="#181818" points="85,213.83,89,204.83,85,208.83,81,204.83,85,213.83" style="stroke:#181818;stroke-width:1.0;"/><text fill="#000000" font-family="sans-serif" font-size="13" lengthAdjust="spacing" textLength="79" x="86" y="142.4951">Displays map</text></g><!--SRC=[XPFFJW8n4CRlVOh97lJ60tWmGJ6111AKoCLm6CguD7RRJTiLqVWyFe5Fm8ivtIt8kX1lE_z-tzUPR8do1NE2xD6JWv49v9vHKWOV0k1fQ0kQSda1CPeHEhckunW-K6bTE8HZcojpY2POpXLj5k9JY7AlSLDvPSXxYBqoQJJK8sBzsPUI6zLIQHMs8- -h1ZlLRAuD7M10cA3Xe20J4ZLcb-XfY6QboItskIZXLR1kswRqgx3cQIKnA6lW0cB2ElLUnmdAfcnbmgzOcn6tbxlZWRittgT1tP-EqeuQ_epSgqeFkOInod7tjVic3ynq18deXUYSfTUxxkxngj5sA8E7ZGfhq7L1T3hhySx6UBxPDpjOSJ4xe_lVafZJO3rWgvM1_ysUTJP7hTWKCwleAVax-R3M0NZqrXP5PQ8afRrGEWZuvWAUKQsfclFdJ3NhlYAd6ADJBHavTJw4_Ny3CKY_WiZssQIIyZLze7ofSUkXm38JFm00]--></g></svg>