<?xml version="1.0" encoding="us-ascii" standalone="no"?><svg xmlns="http://www.w3.org/2000/svg" xmlns:xlink="http://www.w3.org/1999/xlink" contentStyleType="text/css" height="627px" preserveAspectRatio="none" style="width:1890px;height:627px;background:#FFFFFF;" version="1.1" viewBox="0 0 1890 627" width="1890px" zoomAndPan="magnify"><defs/><g><!--cluster Application--><g id="cluster_Application"><path d="M8.5,6 L87.5,6 A3.75,3.75 0 0 1 90,8.5 L97,29.6094 L1161.5,29.6094 A2.5,2.5 0 0 1 1164,32.1094 L1164,617.5 A2.5,2.5 0 0 1 1161.5,620 L8.5,620 A2.5,2.5 0 0 1 6,617.5 L6,8.5 A2.5,2.5 0 0 1 8.5,6 " fill="none" style="stroke:#000000;stroke-width:1.5;"/><line style="stroke:#000000;stroke-width:1.5;" x1="6" x2="97" y1="29.6094" y2="29.6094"/><text fill="#000000" font-family="sans-serif" font-size="14" font-weight="bold" lengthAdjust="spacing" textLength="78" x="10" y="22.5332">Application</text></g><!--cluster User Interface--><g id="cluster_User Interface"><path d="M40.5,58 L141.5,58 A3.75,3.75 0 0 1 144,60.5 L151,81.6094 L516.5,81.6094 A2.5,2.5 0 0 1 519,84.1094 L519,379.5 A2.5,2.5 0 0 1 516.5,382 L40.5,382 A2.5,2.5 0 0 1 38,379.5 L38,60.5 A2.5,2.5 0 0 1 40.5,58 " fill="none" style="stroke:#000000;stroke-width:1.5;"/><line style="stroke:#000000;stroke-width:1.5;" x1="38" x2="151" y1="81.6094" y2="81.6094"/><text fill="#000000" font-family="sans-serif" font-size="14" font-weight="bold" lengthAdjust="spacing" textLength="100" x="42" y="74.5332">User Interface</text></g><!--cluster Business Logic--><g id="cluster_Business Logic"><path d="M561.5,266 L669.5,266 A3.75,3.75 0 0 1 672,268.5 L679,289.6094 L872.5,289.6094 A2.5,2.5 0 0 1 875,292.1094 L875,585.5 A2.5,2.5 0 0 1 872.5,588 L561.5,588 A2.5,2.5 0 0 1 559,585.5 L559,268.5 A2.5,2.5 0 0 1 561.5,266 " fill="none" style="stroke:#000000;stroke-width:1.5;"/><line style="stroke:#000000;stroke-width:1.5;" x1="559" x2="679" y1="289.6094" y2="289.6094"/><text fill="#000000" font-family="sans-serif" font-size="14" font-weight="bold" lengthAdjust="spacing" textLength="107" x="563" y="282.5332">Business Logic</text></g><!--cluster Data Management--><g id="cluster_Data Management"><path d="M917.5,472 L1044.5,472 A3.75,3.75 0 0 1 1047,474.5 L1054,495.6094 L1129.5,495.6094 A2.5,2.5 0 0 1 1132,498.1094 L1132,585.5 A2.5,2.5 0 0 1 1129.5,588 L917.5,588 A2.5,2.5 0 0 1 915,585.5 L915,474.5 A2.5,2.5 0 0 1 917.5,472 " fill="none" style="stroke:#000000;stroke-width:1.5;"/><line style="stroke:#000000;stroke-width:1.5;" x1="915" x2="1054" y1="495.6094" y2="495.6094"/><text fill="#000000" font-family="sans-serif" font-size="14" font-weight="bold" lengthAdjust="spacing" textLength="126" x="919" y="488.5332">Data Management</text></g><!--cluster External Programs--><g id="cluster_External Programs"><path d="M1190.5,214 L1320.5,214 A3.75,3.75 0 0 1 1323,216.5 L1330,237.6094 L1880.5,237.6094 A2.5,2.5 0 0 1 1883,240.1094 L1883,411.5 A2.5,2.5 0 0 1 1880.5,414 L1190.5,414 A2.5,2.5 0 0 1 1188,411.5 L1188,216.5 A2.5,2.5 0 0 1 1190.5,214 " fill="none" style="stroke:#000000;stroke-width:1.5;"/><line style="stroke:#000000;stroke-width:1.5;" x1="1188" x2="1330" y1="237.6094" y2="237.6094"/><text fill="#000000" font-family="sans-serif" font-size="14" font-weight="bold" lengthAdjust="spacing" textLength="129" x="1192" y="230.5332">External Programs</text></g><!--cluster Firebase--><g id="cluster_Firebase"><path d="M1463.5,274 L1526.5,274 A3.75,3.75 0 0 1 1529,276.5 L1536,297.6094 L1856.5,297.6094 A2.5,2.5 0 0 1 1859,300.1094 L1859,371.5 A2.5,2.5 0 0 1 1856.5,374 L1463.5,374 A2.5,2.5 0 0 1 1461,371.5 L1461,276.5 A2.5,2.5 0 0 1 1463.5,274 " fill="none" style="stroke:#000000;stroke-width:1.5;"/><line style="stroke:#000000;stroke-width:1.5;" x1="1461" x2="1536" y1="297.6094" y2="297.6094"/><text fill="#000000" font-family="sans-serif" font-size="14" font-weight="bold" lengthAdjust="spacing" textLength="62" x="1465" y="290.5332">Firebase</text></g><!--cluster Google Maps--><g id="cluster_Google Maps"><path d="M1222.5,266 L1316.5,266 A3.75,3.75 0 0 1 1319,268.5 L1326,289.6094 L1426.5,289.6094 A2.5,2.5 0 0 1 1429,292.1094 L1429,379.5 A2.5,2.5 0 0 1 1426.5,382 L1222.5,382 A2.5,2.5 0 0 1 1220,379.5 L1220,268.5 A2.5,2.5 0 0 1 1222.5,266 " fill="none" style="stroke:#000000;stroke-width:1.5;"/><line style="stroke:#000000;stroke-width:1.5;" x1="1220" x2="1326" y1="289.6094" y2="289.6094"/><text fill="#000000" font-family="sans-serif" font-size="14" font-weight="bold" lengthAdjust="spacing" textLength="93" x="1224" y="282.5332">Google Maps</text></g><!--entity HomePage--><g id="elem_HomePage"><rect fill="#F1F1F1" height="47.6094" rx="2.5" ry="2.5" style="stroke:#181818;stroke-width:0.5;" width="109" x="62.5" y="102"/><rect fill="#F1F1F1" height="10" style="stroke:#181818;stroke-width:0.5;" width="15" x="151.5" y="107"/><rect fill="#F1F1F1" height="2" style="stroke:#181818;stroke-width:0.5;" width="4" x="149.5" y="109"/><rect fill="#F1F1F1" height="2" style="stroke:#181818;stroke-width:0.5;" width="4" x="149.5" y="113"/><text fill="#000000" font-family="sans-serif" font-size="14" lengthAdjust="spacing" textLength="69" x="77.5" y="136.5332">HomePage</text></g><!--entity SearchPage--><g id="elem_SearchPage"><rect fill="#F1F1F1" height="47.6094" rx="2.5" ry="2.5" style="stroke:#181818;stroke-width:0.5;" width="118" x="207" y="102"/><rect fill="#F1F1F1" height="10" style="stroke:#181818;stroke-width:0.5;" width="15" x="305" y="107"/><rect fill="#F1F1F1" height="2" style="stroke:#181818;stroke-width:0.5;" width="4" x="303" y="109"/><rect fill="#F1F1F1" height="2" style="stroke:#181818;stroke-width:0.5;" width="4" x="303" y="113"/><text fill="#000000" font-family="sans-serif" font-size="14" lengthAdjust="spacing" textLength="78" x="222" y="136.5332">SearchPage</text></g><!--entity ReportPage--><g id="elem_ReportPage"><rect fill="#F1F1F1" height="47.6094" rx="2.5" ry="2.5" style="stroke:#181818;stroke-width:0.5;" width="116" x="360" y="102"/><rect fill="#F1F1F1" height="10" style="stroke:#181818;stroke-width:0.5;" width="15" x="456" y="107"/><rect fill="#F1F1F1" height="2" style="stroke:#181818;stroke-width:0.5;" width="4" x="454" y="109"/><rect fill="#F1F1F1" height="2" style="stroke:#181818;stroke-width:0.5;" width="4" x="454" y="113"/><text fill="#000000" font-family="sans-serif" font-size="14" lengthAdjust="spacing" textLength="76" x="375" y="136.5332">ReportPage</text></g><!--entity LoginPage--><g id="elem_LoginPage"><rect fill="#F1F1F1" height="47.6094" rx="2.5" ry="2.5" style="stroke:#181818;stroke-width:0.5;" width="108" x="212" y="310"/><rect fill="#F1F1F1" height="10" style="stroke:#181818;stroke-width:0.5;" width="15" x="300" y="315"/><rect fill="#F1F1F1" height="2" style="stroke:#181818;stroke-width:0.5;" width="4" x="298" y="317"/><rect fill="#F1F1F1" height="2" style="stroke:#181818;stroke-width:0.5;" width="4" x="298" y="321"/><text fill="#000000" font-family="sans-serif" font-size="14" lengthAdjust="spacing" textLength="68" x="227" y="344.5332">LoginPage</text></g><!--entity MapView--><g id="elem_MapView"><rect fill="#F1F1F1" height="47.6094" rx="2.5" ry="2.5" style="stroke:#181818;stroke-width:0.5;" width="96" x="69" y="310"/><rect fill="#F1F1F1" height="10" style="stroke:#181818;stroke-width:0.5;" width="15" x="145" y="315"/><rect fill="#F1F1F1" height="2" style="stroke:#181818;stroke-width:0.5;" width="4" x="143" y="317"/><rect fill="#F1F1F1" height="2" style="stroke:#181818;stroke-width:0.5;" width="4" x="143" y="321"/><text fill="#000000" font-family="sans-serif" font-size="14" lengthAdjust="spacing" textLength="56" x="84" y="344.5332">MapView</text></g><!--entity Search--><g id="elem_Search"><rect fill="#F1F1F1" height="47.6094" rx="2.5" ry="2.5" style="stroke:#181818;stroke-width:0.5;" width="85" x="615.5" y="310"/><rect fill="#F1F1F1" height="10" style="stroke:#181818;stroke-width:0.5;" width="15" x="680.5" y="315"/><rect fill="#F1F1F1" height="2" style="stroke:#181818;stroke-width:0.5;" width="4" x="678.5" y="317"/><rect fill="#F1F1F1" height="2" style="stroke:#181818;stroke-width:0.5;" width="4" x="678.5" y="321"/><text fill="#000000" font-family="sans-serif" font-size="14" lengthAdjust="spacing" textLength="45" x="630.5" y="344.5332">Search</text></g><!--entity Report--><g id="elem_Report"><rect fill="#F1F1F1" height="47.6094" rx="2.5" ry="2.5" style="stroke:#181818;stroke-width:0.5;" width="83" x="735.5" y="310"/><rect fill="#F1F1F1" height="10" style="stroke:#181818;stroke-width:0.5;" width="15" x="798.5" y="315"/><rect fill="#F1F1F1" height="2" style="stroke:#181818;stroke-width:0.5;" width="4" x="796.5" y="317"/><rect fill="#F1F1F1" height="2" style="stroke:#181818;stroke-width:0.5;" width="4" x="796.5" y="321"/><text fill="#000000" font-family="sans-serif" font-size="14" lengthAdjust="spacing" textLength="43" x="750.5" y="344.5332">Report</text></g><!--entity AccessibilityIssue--><g id="elem_AccessibilityIssue"><rect fill="#F1F1F1" height="47.6094" rx="2.5" ry="2.5" style="stroke:#181818;stroke-width:0.5;" width="149" x="583.5" y="516"/><rect fill="#F1F1F1" height="10" style="stroke:#181818;stroke-width:0.5;" width="15" x="712.5" y="521"/><rect fill="#F1F1F1" height="2" style="stroke:#181818;stroke-width:0.5;" width="4" x="710.5" y="523"/><rect fill="#F1F1F1" height="2" style="stroke:#181818;stroke-width:0.5;" width="4" x="710.5" y="527"/><text fill="#000000" font-family="sans-serif" font-size="14" lengthAdjust="spacing" textLength="109" x="598.5" y="550.5332">AccessibilityIssue</text></g><!--entity Place--><g id="elem_Place"><rect fill="#F1F1F1" height="47.6094" rx="2.5" ry="2.5" style="stroke:#181818;stroke-width:0.5;" width="75" x="767.5" y="516"/><rect fill="#F1F1F1" height="10" style="stroke:#181818;stroke-width:0.5;" width="15" x="822.5" y="521"/><rect fill="#F1F1F1" height="2" style="stroke:#181818;stroke-width:0.5;" width="4" x="820.5" y="523"/><rect fill="#F1F1F1" height="2" style="stroke:#181818;stroke-width:0.5;" width="4" x="820.5" y="527"/><text fill="#000000" font-family="sans-serif" font-size="14" lengthAdjust="spacing" textLength="35" x="782.5" y="550.5332">Place</text></g><!--entity DatabaseHandler--><g id="elem_DatabaseHandler"><rect fill="#F1F1F1" height="47.6094" rx="2.5" ry="2.5" style="stroke:#181818;stroke-width:0.5;" width="150" x="958" y="516"/><rect fill="#F1F1F1" height="10" style="stroke:#181818;stroke-width:0.5;" width="15" x="1088" y="521"/><rect fill="#F1F1F1" height="2" style="stroke:#181818;stroke-width:0.5;" width="4" x="1086" y="523"/><rect fill="#F1F1F1" height="2" style="stroke:#181818;stroke-width:0.5;" width="4" x="1086" y="527"/><text fill="#000000" font-family="sans-serif" font-size="14" lengthAdjust="spacing" textLength="110" x="973" y="550.5332">DatabaseHandler</text></g><!--entity Authentication & Authorization--><g id="elem_Authentication &amp; Authorization"><rect fill="#F1F1F1" height="47.6094" rx="2.5" ry="2.5" style="stroke:#181818;stroke-width:0.5;" width="229" x="1613.5" y="310"/><rect fill="#F1F1F1" height="10" style="stroke:#181818;stroke-width:0.5;" width="15" x="1822.5" y="315"/><rect fill="#F1F1F1" height="2" style="stroke:#181818;stroke-width:0.5;" width="4" x="1820.5" y="317"/><rect fill="#F1F1F1" height="2" style="stroke:#181818;stroke-width:0.5;" width="4" x="1820.5" y="321"/><text fill="#000000" font-family="sans-serif" font-size="14" lengthAdjust="spacing" textLength="189" x="1628.5" y="344.5332">Authentication &amp; Authorization</text></g><!--entity Database--><g id="elem_Database"><rect fill="#F1F1F1" height="47.6094" rx="2.5" ry="2.5" style="stroke:#181818;stroke-width:0.5;" width="101" x="1477.5" y="310"/><rect fill="#F1F1F1" height="10" style="stroke:#181818;stroke-width:0.5;" width="15" x="1558.5" y="315"/><rect fill="#F1F1F1" height="2" style="stroke:#181818;stroke-width:0.5;" width="4" x="1556.5" y="317"/><rect fill="#F1F1F1" height="2" style="stroke:#181818;stroke-width:0.5;" width="4" x="1556.5" y="321"/><text fill="#000000" font-family="sans-serif" font-size="14" lengthAdjust="spacing" textLength="61" x="1492.5" y="344.5332">Database</text></g><!--entity GoogleMapsAPI--><g id="elem_GoogleMapsAPI"><rect fill="#F1F1F1" height="47.6094" rx="2.5" ry="2.5" style="stroke:#181818;stroke-width:0.5;" width="141" x="1263.5" y="310"/><rect fill="#F1F1F1" height="10" style="stroke:#181818;stroke-width:0.5;" width="15" x="1384.5" y="315"/><rect fill="#F1F1F1" height="2" style="stroke:#181818;stroke-width:0.5;" width="4" x="1382.5" y="317"/><rect fill="#F1F1F1" height="2" style="stroke:#181818;stroke-width:0.5;" width="4" x="1382.5" y="321"/><text fill="#000000" font-family="sans-serif" font-size="14" lengthAdjust="spacing" textLength="101" x="1278.5" y="344.5332">GoogleMapsAPI</text></g><!--link User Interface to Business Logic--><g id="link_User Interface_Business Logic"><path d="M519.488,127.5882 C521.1719,127.712 523.0883,127.8558 525.2213,128.0205 C533.753,128.6794 545.7482,129.6716 560.1733,131.0413 C589.0234,133.7806 627.5931,138.03 667.6138,144.1425 C747.655,156.3675 833.5,176.045 859,206 C877.045,227.195 879.265,258.2925 876.8663,284.41 C876.5664,287.6747 876.1944,290.8616 875.7721,293.9416 C875.561,295.4816 875.3372,296.9948 875.1037,298.4778 C875.0745,298.6631 875.9928,292.9233 875.9633,293.1077 " fill="none" id="User Interface-to-Business Logic" style="stroke:#181818;stroke-width:1.0;stroke-dasharray:7.0,7.0;"/><polygon fill="#181818" points="875.0157,299.0324,880.3869,290.7771,875.8053,294.0952,872.4873,289.5136,875.0157,299.0324" style="stroke:#181818;stroke-width:1.0;"/><text fill="#000000" font-family="sans-serif" font-size="13" lengthAdjust="spacing" textLength="108" x="848" y="194.4951">Interacts with logic</text></g><!--link Business Logic to Data Management--><g id="link_Business Logic_Data Management"><path d="M875.0643,364.3781 C875.1414,364.6589 875.2189,364.9413 875.2968,365.2252 C875.6085,366.3606 875.9269,367.5202 876.2514,368.7023 C881.4441,387.6172 888.2281,412.3294 895.0113,437.0388 C901.7944,461.7481 908.5766,486.4547 913.7655,505.3583 C914.0898,506.5398 914.4079,507.6986 914.7193,508.8333 C914.7972,509.117 913.2865,503.6132 913.3635,503.8938 " fill="none" id="Business Logic-to-Data Management" style="stroke:#181818;stroke-width:1.0;stroke-dasharray:7.0,7.0;"/><polygon fill="#181818" points="914.9517,509.6798,916.4267,499.942,913.6282,504.8581,908.7121,502.0596,914.9517,509.6798" style="stroke:#181818;stroke-width:1.0;"/><text fill="#000000" font-family="sans-serif" font-size="13" lengthAdjust="spacing" textLength="87" x="897" y="444.4951">Accesses data</text></g><!--link User Interface to Authentication & Authorization--><g id="link_User Interface_Authentication &amp; Authorization"><path d="M519.3795,127.262 C519.7715,127.2745 520.1768,127.2874 520.5952,127.3008 C521.432,127.3276 522.3213,127.3561 523.2623,127.3865 C530.7901,127.6289 541.6237,127.9841 555.3194,128.4496 C582.7109,129.3805 621.5509,130.7527 668.2898,132.5459 C761.7678,136.1325 886.8419,141.4038 1015.1163,148.2 C1271.665,161.7925 1541.015,181.485 1596,206 C1646.97,228.73 1686.5327,275.1483 1708.6127,305.1383 " fill="none" id="User Interface-to-Authentication &amp; Authorization" style="stroke:#181818;stroke-width:1.0;stroke-dasharray:7.0,7.0;"/><polygon fill="#181818" points="1712.17,309.97,1710.0552,300.3509,1709.2056,305.9436,1703.6129,305.094,1712.17,309.97" style="stroke:#181818;stroke-width:1.0;"/><text fill="#000000" font-family="sans-serif" font-size="13" lengthAdjust="spacing" textLength="138" x="1568" y="194.4951">Manages authentication</text></g><!--link Authentication & Authorization to Data Management--><g id="link_Authentication &amp; Authorization_Data Management"><path d="M1701.93,358.34 C1676.8,379.26 1636.68,408.64 1596,422 C1578.72,427.68 955.93,444.3 942,456 C938.4913,458.9488 935.5536,462.4005 933.1002,466.1901 C932.4868,467.1375 931.9037,468.106 931.3495,469.0931 C931.0725,469.5866 930.8026,470.0848 930.5398,470.5873 C930.4084,470.8385 930.2787,471.0908 930.1509,471.3442 C930.0869,471.4709 932.6892,466.2225 932.6261,466.3497 " fill="none" id="Authentication &amp; Authorization-to-Data Management" style="stroke:#181818;stroke-width:1.0;stroke-dasharray:7.0,7.0;"/><polygon fill="#181818" points="929.9603,471.725,937.5425,465.4393,932.1818,467.2456,930.3755,461.8849,929.9603,471.725" style="stroke:#181818;stroke-width:1.0;"/><text fill="#000000" font-family="sans-serif" font-size="13" lengthAdjust="spacing" textLength="112" x="1434" y="444.4951">Validates user data</text></g><!--link Business Logic to Google Maps--><g id="link_Business Logic_Google Maps"><path d="M875.3379,334 C875.7807,334 876.2398,334 876.7151,334 C877.6656,334 878.6806,334 879.7576,334 C881.9117,334 884.314,334 886.9455,334 C897.4715,334 911.6639,334 928.2997,334 C961.5713,334 1004.6163,334 1047.65,334 C1090.6838,334 1133.7063,334 1166.9328,334 C1183.5461,334 1197.7104,334 1208.2026,334 C1210.8257,334 1213.2192,334 1215.3642,334 C1216.4366,334 1217.4469,334 1218.3927,334 C1218.8656,334 1213.3224,334 1213.7627,334 " fill="none" id="Business Logic-to-Google Maps" style="stroke:#181818;stroke-width:1.0;stroke-dasharray:7.0,7.0;"/><polygon fill="#181818" points="1219.7627,334,1210.7627,330,1214.7627,334,1210.7627,338,1219.7627,334" style="stroke:#181818;stroke-width:1.0;"/><text fill="#000000" font-family="sans-serif" font-size="13" lengthAdjust="spacing" textLength="215" x="940" y="327.4951">Communicates with external services</text></g><!--link HomePage to MapView--><g id="link_HomePage_MapView"><path d="M117,150.23 C117,189.9 117,264.24 117,303.85 " fill="none" id="HomePage-to-MapView" style="stroke:#181818;stroke-width:1.0;stroke-dasharray:7.0,7.0;"/><polygon fill="#181818" points="117,309.85,121,300.85,117,304.85,113,300.85,117,309.85" style="stroke:#181818;stroke-width:1.0;"/><text fill="#000000" font-family="sans-serif" font-size="13" lengthAdjust="spacing" textLength="79" x="118" y="194.4951">Displays map</text></g><!--SRC=[XLDBJiCm4Dtd5ACiODS3i40A56YbLef0T8EwcAP3Qk7ObkrG2k8yd80Jz6ACyrD3MbZEyxoFdnE3sGlc175YZ1GPUg5L31yHW6bF7XrPc2fFzXapgWy1dYQwe9GNbb3F3uGssrH83ToJqTOV03ET2tKmpz4i16t3z1aTEbwLJYXo3W8ZwnnhXvvwCoHPnkjY9QJmkwbpPMkHIeuyD1YZHvYZug4WvJk7WA_GqGJLMfAjYKpjY3TlN8D22QdLkSN2_UhgLbWA0frYKleDEpJDmXa4G5lnNitBlkqmw9tMkIIEQbmdMMC1Ij9f5_4SPYB7_TV-cnomewLMnKLHD7Z4qUXosFC5nDKAPjx1LlWDoEeW6cnMz46BpAzVWYEi-J0-uVjtAPLEBUi0Uwii-1_tPB85Ii6XMBCCcPfyHo_MQvsfrxeeIXKigUc5sk-0fLu5Npdcae-z0KBxdq0Ocay-YbkqSMpmocqid96uSr2WYQCV]--></g></svg>