<?xml version="1.0" standalone="no"?>
<!DOCTYPE svg PUBLIC "-//W3C//DTD SVG 20010904//EN"
 "http://www.w3.org/TR/2001/REC-SVG-20010904/DTD/svg10.dtd">
<svg version="1.0" xmlns="http://www.w3.org/2000/svg"
 width="437.000000pt" height="560.000000pt" viewBox="0 0 437.000000 560.000000"
 preserveAspectRatio="xMidYMid meet">

<g transform="translate(0.000000,560.000000) scale(0.100000,-0.100000)"
fill="#000000" stroke="none">
<path d="M1410 5400 l0 -51 32 3 c25 2 35 9 42 31 13 37 -2 61 -43 65 l-31 3
0 -51z m58 -2 c3 -24 0 -28 -22 -28 -22 0 -26 4 -26 31 0 26 3 30 23 27 16 -2
23 -11 25 -30z"/>
<path d="M1680 5400 c0 -27 5 -50 10 -50 6 0 10 23 10 50 0 28 -4 50 -10 50
-5 0 -10 -22 -10 -50z"/>
<path d="M2182 5438 c-12 -15 -2 -80 14 -85 7 -2 10 14 9 42 -2 52 -7 61 -23
43z"/>
<path d="M2270 5400 c0 -48 1 -50 28 -50 35 0 52 16 52 50 0 34 -17 50 -52 50
-27 0 -28 -2 -28 -50z m65 0 c0 -18 -6 -26 -22 -28 -20 -3 -23 1 -23 28 0 27
3 31 23 28 16 -2 22 -10 22 -28z"/>
<path d="M1512 5413 c-14 -26 3 -63 28 -63 27 0 26 18 -2 23 -20 4 -19 4 5 6
28 1 35 19 15 39 -17 17 -36 15 -46 -5z m35 -9 c-3 -3 -12 -4 -19 -1 -8 3 -5
6 6 6 11 1 17 -2 13 -5z"/>
<path d="M1590 5375 c0 -30 5 -55 10 -55 6 0 10 7 10 15 0 8 7 15 15 15 8 0
19 9 25 20 15 28 -4 60 -35 60 -24 0 -25 -3 -25 -55z m50 15 c0 -23 -25 -27
-33 -6 -7 16 1 26 20 26 7 0 13 -9 13 -20z"/>
<path d="M1724 5416 c-11 -29 1 -61 23 -64 29 -4 48 30 33 58 -12 23 -48 27
-56 6z m46 -26 c0 -11 -6 -20 -14 -20 -18 0 -29 16 -21 30 11 18 35 11 35 -10z"/>
<path d="M1805 5413 c16 -42 18 -75 4 -84 -11 -7 -11 -9 3 -9 10 0 22 16 32
47 19 56 20 80 1 38 l-13 -30 -11 28 c-6 15 -13 27 -17 27 -3 0 -3 -8 1 -17z"/>
<path d="M1887 5391 c6 -47 13 -53 13 -13 0 22 5 32 15 32 10 0 15 -10 15 -31
0 -18 4 -28 10 -24 6 4 8 10 5 15 -7 11 5 40 16 40 5 0 9 -13 9 -30 0 -16 5
-30 11 -30 6 0 9 16 7 37 l-3 37 -51 2 -51 1 4 -36z"/>
<path d="M2015 5411 c-9 -30 3 -61 25 -61 28 0 34 18 8 23 l-23 4 23 2 c18 1
23 6 20 24 -4 30 -44 36 -53 8z m42 -7 c-3 -3 -12 -4 -19 -1 -8 3 -5 6 6 6 11
1 17 -2 13 -5z"/>
<path d="M2098 5405 c-3 -12 -1 -30 3 -41 6 -15 8 -12 8 14 1 43 31 45 31 2 0
-16 5 -30 10 -30 12 0 13 49 2 67 -12 20 -50 11 -54 -12z"/>
<path d="M2383 5390 c0 -25 2 -35 4 -22 2 12 2 32 0 45 -2 12 -4 2 -4 -23z"/>
<path d="M2415 5421 c-3 -7 3 -11 15 -11 12 0 18 -4 15 -10 -3 -5 -1 -10 6
-10 10 0 10 -3 1 -12 -10 -10 -15 -10 -21 1 -6 9 -11 10 -15 2 -11 -18 3 -31
30 -29 22 2 25 6 22 38 -2 27 -8 36 -25 38 -11 2 -24 -2 -28 -7z"/>
<path d="M2501 5417 c-24 -24 2 -79 29 -62 5 3 10 1 10 -6 0 -7 -8 -9 -21 -6
-13 3 -19 1 -16 -6 6 -18 38 -21 48 -5 5 7 9 32 9 54 0 37 -2 42 -24 42 -14 0
-29 -5 -35 -11z m39 -27 c0 -11 -7 -20 -15 -20 -8 0 -15 9 -15 20 0 11 7 20
15 20 8 0 15 -9 15 -20z"/>
<path d="M2588 5405 c-3 -12 -1 -30 3 -41 6 -16 8 -14 8 10 1 16 9 35 19 42
16 12 15 13 -5 11 -13 -1 -23 -9 -25 -22z"/>
<path d="M2645 5420 c-3 -6 4 -10 17 -11 l23 0 -22 -11 c-13 -6 -23 -19 -23
-29 0 -14 7 -18 30 -16 31 2 39 23 24 61 -7 18 -39 22 -49 6z m35 -40 c0 -5
-7 -10 -16 -10 -8 0 -12 5 -9 10 3 6 10 10 16 10 5 0 9 -4 9 -10z"/>
<path d="M2720 5389 c0 -21 5 -39 10 -39 6 0 10 14 10 30 0 17 5 30 10 30 6 0
10 -13 10 -30 0 -16 5 -30 10 -30 6 0 10 14 10 30 0 42 27 40 33 -2 3 -30 4
-29 5 8 l2 41 -50 1 -50 1 0 -40z"/>
<path d="M208 5111 c-27 -27 -48 -52 -48 -57 0 -5 623 -9 1449 -9 1439 0 1449
0 1461 20 10 16 10 18 -1 8 -10 -10 -315 -13 -1453 -13 l-1440 0 44 45 44 45
1433 0 c788 0 1433 -3 1433 -7 0 -3 -8 -15 -17 -26 -15 -17 -12 -16 14 3 18
13 30 27 27 32 -3 4 -656 8 -1452 8 l-1447 -1 -47 -48z"/>
<path d="M1213 4964 c-4 -12 3 -25 23 -42 l29 -24 -28 6 c-21 5 -28 3 -25 -6
3 -7 16 -13 29 -13 32 0 41 44 10 52 -12 3 -21 10 -21 15 0 5 10 6 21 3 15 -5
20 -3 17 6 -7 21 -47 23 -55 3z"/>
<path d="M1712 4930 c0 -39 2 -47 7 -26 9 41 31 46 31 7 0 -17 5 -31 11 -31 6
0 9 16 7 38 -3 31 -6 37 -25 35 -13 -2 -23 4 -26 15 -3 9 -5 -8 -5 -38z"/>
<path d="M1543 4962 c-31 -3 -33 -6 -33 -43 0 -21 5 -39 10 -39 6 0 10 13 10
29 0 16 6 31 14 34 19 8 26 -1 26 -35 0 -18 5 -28 15 -28 8 0 15 5 15 10 0 6
-4 10 -10 10 -5 0 -10 9 -10 20 0 11 5 20 10 20 14 0 12 17 -2 22 -7 2 -28 2
-45 0z"/>
<path d="M1301 4918 l1 -43 9 33 c12 40 29 42 29 2 0 -16 5 -30 10 -30 6 0 10
14 10 31 0 39 22 34 32 -7 5 -25 6 -23 5 11 l-2 39 -47 3 -48 3 1 -42z"/>
<path d="M1430 4951 c0 -6 10 -11 23 -11 18 0 19 -2 7 -10 -13 -8 -13 -10 0
-10 11 0 11 -3 2 -12 -10 -10 -15 -10 -21 1 -6 9 -11 10 -15 2 -11 -18 3 -31
30 -29 22 2 25 6 22 38 -2 28 -8 36 -25 38 -13 2 -23 -1 -23 -7z"/>
<path d="M1621 4901 c1 -32 4 -48 7 -36 4 11 16 20 27 20 16 0 20 7 20 35 0
31 -3 35 -27 36 -27 1 -28 0 -27 -55z m45 28 c10 -17 -13 -36 -27 -22 -12 12
-4 33 11 33 5 0 12 -5 16 -11z"/>
<path d="M1800 4945 c-26 -31 13 -82 44 -56 19 16 21 42 4 59 -16 16 -33 15
-48 -3z m45 -25 c0 -8 -8 -16 -17 -18 -13 -2 -18 3 -18 18 0 15 5 20 18 18 9
-2 17 -10 17 -18z"/>
<path d="M1889 4950 c-4 -31 -2 -70 4 -70 4 0 7 14 7 30 0 20 5 30 15 30 10 0
15 -10 15 -30 0 -16 5 -30 10 -30 12 0 13 49 2 67 -7 12 -51 14 -53 3z"/>
<path d="M1982 4948 c-28 -28 0 -78 35 -63 16 7 15 9 -7 15 l-25 8 27 1 c24 1
26 4 19 24 -10 26 -31 33 -49 15z m35 -14 c-3 -3 -12 -4 -19 -1 -8 3 -5 6 6 6
11 1 17 -2 13 -5z"/>
<path d="M405 4659 c-4 -6 -4 -13 -1 -16 3 -4 6 -1 6 5 0 16 2486 17 2493 2 3
-6 4 -5 3 2 -4 17 -2491 24 -2501 7z"/>
<path d="M942 4598 c-12 -15 -2 -80 14 -85 7 -2 10 14 9 42 -2 52 -7 61 -23
43z"/>
<path d="M1210 4560 l0 -50 41 0 c24 0 38 4 34 10 -3 6 -17 10 -31 10 -13 0
-24 5 -24 10 0 6 11 10 25 10 14 0 25 5 25 10 0 6 -11 10 -25 10 -14 0 -25 5
-25 10 0 6 11 10 25 10 14 0 25 5 25 10 0 6 -16 10 -35 10 l-35 0 0 -50z"/>
<path d="M2062 4598 c-12 -15 -2 -80 14 -85 7 -2 10 14 9 42 -2 52 -7 61 -23
43z"/>
<path d="M2253 4593 c-3 -10 -12 -33 -19 -50 -7 -19 -9 -33 -3 -33 5 0 9 5 9
10 0 14 43 13 58 -2 16 -16 15 -2 -4 49 -18 46 -31 54 -41 26z m27 -28 c0 -8
-7 -15 -15 -15 -9 0 -12 6 -9 15 4 8 10 15 15 15 5 0 9 -7 9 -15z"/>
<path d="M2470 4596 c0 -8 -7 -13 -16 -12 -9 0 -21 -7 -28 -16 -15 -25 3 -52
38 -56 25 -3 26 -2 26 47 0 28 -4 51 -10 51 -5 0 -10 -6 -10 -14z m0 -46 c0
-11 -7 -20 -15 -20 -8 0 -15 9 -15 20 0 11 7 20 15 20 8 0 15 -9 15 -20z"/>
<path d="M2750 4596 c0 -8 -7 -13 -16 -12 -9 0 -21 -7 -28 -16 -15 -25 3 -52
38 -56 25 -3 26 -2 26 47 0 28 -4 51 -10 51 -5 0 -10 -6 -10 -14z m0 -46 c0
-11 -7 -20 -15 -20 -8 0 -15 9 -15 20 0 11 7 20 15 20 8 0 15 -9 15 -20z"/>
<path d="M532 4578 c-28 -28 0 -78 35 -63 16 7 15 9 -7 15 l-25 8 27 1 c24 1
26 4 19 24 -10 26 -31 33 -49 15z m35 -14 c-3 -3 -12 -4 -19 -1 -8 3 -5 6 6 6
11 1 17 -2 13 -5z"/>
<path d="M610 4575 c10 -12 10 -21 2 -40 -12 -26 -4 -33 15 -14 8 8 13 8 17 0
4 -6 12 -11 17 -11 5 0 2 11 -6 24 -11 16 -13 26 -6 31 6 3 11 11 11 17 0 7
-5 6 -14 -1 -10 -8 -16 -9 -21 -1 -3 5 -11 10 -17 10 -6 0 -6 -6 2 -15z"/>
<path d="M692 4578 c-28 -28 0 -78 35 -63 16 7 15 9 -7 15 l-25 8 27 1 c24 1
26 4 19 24 -10 26 -31 33 -49 15z m35 -14 c-3 -3 -12 -4 -19 -1 -8 3 -5 6 6 6
11 1 17 -2 13 -5z"/>
<path d="M774 4576 c-3 -8 -4 -25 -2 -38 4 -27 42 -37 51 -14 5 12 0 15 -16
13 -14 -1 -22 3 -22 13 0 10 8 14 24 12 20 -2 22 0 11 13 -16 19 -39 19 -46 1z"/>
<path d="M852 4553 c3 -34 6 -38 31 -39 25 -1 27 1 26 40 -1 37 -2 38 -8 12
-9 -41 -31 -46 -31 -7 0 17 -5 31 -11 31 -6 0 -9 -16 -7 -37z"/>
<path d="M990 4550 c0 -22 5 -40 10 -40 6 0 10 18 10 40 0 22 -4 40 -10 40 -5
0 -10 -18 -10 -40z"/>
<path d="M1040 4575 c-26 -31 13 -82 44 -56 21 17 21 57 0 65 -23 9 -30 8 -44
-9z m45 -25 c0 -8 -8 -16 -17 -18 -13 -2 -18 3 -18 18 0 15 5 20 18 18 9 -2
17 -10 17 -18z"/>
<path d="M1128 4558 c-3 -15 -1 -33 4 -40 5 -8 8 -1 8 20 0 22 5 32 15 32 10
0 15 -10 15 -30 0 -16 5 -30 10 -30 12 0 13 49 2 67 -4 7 -17 11 -29 10 -15
-1 -23 -9 -25 -29z"/>
<path d="M1310 4551 c0 -23 5 -41 10 -41 6 0 10 14 10 31 0 39 22 34 32 -7 5
-25 6 -23 5 11 -2 36 -5 40 -29 43 -27 3 -28 1 -28 -37z"/>
<path d="M1405 4554 c8 -20 15 -38 15 -40 0 -2 4 -4 9 -4 5 0 11 10 14 23 2
12 8 30 12 40 4 9 3 17 -3 17 -5 0 -13 -12 -17 -27 l-8 -28 -10 28 c-6 15 -15
27 -19 27 -5 0 -1 -16 7 -36z"/>
<path d="M1480 4550 c0 -22 5 -40 10 -40 6 0 10 18 10 40 0 22 -4 40 -10 40
-5 0 -10 -18 -10 -40z"/>
<path d="M1528 4567 c-3 -13 -1 -32 3 -43 6 -16 8 -14 8 10 1 16 9 35 19 42
16 12 16 13 -4 14 -15 0 -23 -7 -26 -23z"/>
<path d="M1590 4575 c-26 -31 13 -82 44 -56 19 16 21 42 4 59 -16 16 -33 15
-48 -3z m40 -25 c0 -21 -24 -28 -35 -10 -8 14 3 30 21 30 8 0 14 -9 14 -20z"/>
<path d="M1670 4549 c0 -21 5 -39 10 -39 6 0 10 14 10 30 0 42 27 40 33 -2 4
-27 4 -26 3 7 -1 36 -4 40 -28 42 -26 2 -28 -1 -28 -38z"/>
<path d="M1760 4550 c0 -22 5 -40 10 -40 6 0 10 14 10 30 0 17 5 30 10 30 6 0
10 -13 10 -30 0 -16 5 -30 10 -30 6 0 10 14 10 30 0 42 27 40 33 -2 4 -27 4
-26 3 7 l-1 39 -47 3 -48 3 0 -40z"/>
<path d="M1892 4573 c-14 -26 3 -63 28 -63 27 0 26 18 -2 23 -20 4 -19 4 5 6
28 1 35 19 15 39 -17 17 -36 15 -46 -5z m35 -9 c-3 -3 -12 -4 -19 -1 -8 3 -5
6 6 6 11 1 17 -2 13 -5z"/>
<path d="M1970 4548 c0 -21 5 -38 10 -38 6 0 10 14 10 30 0 42 27 40 33 -2 3
-29 4 -28 5 9 2 40 1 42 -28 41 -28 -1 -30 -4 -30 -40z"/>
<path d="M2341 4546 c1 -37 2 -38 8 -12 9 41 31 46 31 7 0 -17 5 -31 11 -31 6
0 9 16 7 38 -3 33 -6 37 -30 38 -26 1 -28 -1 -27 -40z"/>
<path d="M2522 4545 c1 -37 2 -37 5 -7 3 19 10 32 19 32 8 0 14 4 14 9 0 6 -9
9 -20 8 -17 -1 -20 -8 -18 -42z"/>
<path d="M2580 4575 c-26 -31 13 -82 44 -56 21 17 21 57 0 65 -23 9 -30 8 -44
-9z m45 -25 c0 -8 -8 -16 -17 -18 -13 -2 -18 3 -18 18 0 15 5 20 18 18 9 -2
17 -10 17 -18z"/>
<path d="M2668 4585 c-6 -6 0 -66 7 -73 3 -3 5 13 5 36 0 42 -2 47 -12 37z"/>
<path d="M451 4556 c-6 -7 -9 -21 -5 -30 10 -25 19 -19 19 14 0 35 1 34 -14
16z"/>
<path d="M481 4556 c-6 -7 -9 -21 -5 -30 10 -25 19 -19 19 14 0 35 1 34 -14
16z"/>
<path d="M2115 4540 c0 -26 2 -27 15 -15 13 13 13 17 0 30 -13 13 -15 11 -15
-15z"/>
<path d="M2145 4540 c0 -26 2 -27 15 -15 13 13 13 17 0 30 -13 13 -15 11 -15
-15z"/>
<path d="M2795 4510 l-49 -50 -1173 2 c-645 2 -1173 0 -1173 -4 0 -5 528 -8
1173 -8 l1173 0 54 55 c30 30 52 55 49 55 -2 0 -27 -23 -54 -50z"/>
<path d="M1238 4303 c6 -2 18 -2 25 0 6 3 1 5 -13 5 -14 0 -19 -2 -12 -5z"/>
<path d="M1443 4303 c92 -2 242 -2 335 0 92 1 16 3 -168 3 -184 0 -260 -2
-167 -3z"/>
<path d="M1958 4303 c7 -3 16 -2 19 1 4 3 -2 6 -13 5 -11 0 -14 -3 -6 -6z"/>
<path d="M2008 4303 c12 -2 32 -2 45 0 12 2 2 4 -23 4 -25 0 -35 -2 -22 -4z"/>
<path d="M1204 4105 c0 -104 2 -146 3 -92 2 54 2 139 0 190 -1 51 -3 7 -3 -98z"/>
<path d="M2094 4105 c0 -104 2 -146 3 -92 2 54 2 139 0 190 -1 51 -3 7 -3 -98z"/>
<path d="M2035 4190 c3 -5 8 -10 11 -10 2 0 4 5 4 10 0 6 -5 10 -11 10 -5 0
-7 -4 -4 -10z"/>
<path d="M1323 4080 c0 -30 2 -43 4 -27 2 15 2 39 0 55 -2 15 -4 2 -4 -28z"/>
<path d="M1503 4080 c0 -30 2 -43 4 -27 2 15 2 39 0 55 -2 15 -4 2 -4 -28z"/>
<path d="M1842 4080 c0 -38 2 -47 7 -30 l7 25 13 -23 c7 -13 15 -21 18 -18 3
3 0 13 -7 22 -11 12 -11 20 -2 35 8 12 8 19 2 19 -6 0 -14 -8 -18 -17 -5 -14
-8 -12 -13 12 -5 23 -7 17 -7 -25z"/>
<path d="M1350 4069 c0 -22 5 -39 11 -39 5 0 9 8 8 18 -3 36 1 52 15 52 9 0
16 -13 19 -32 4 -33 4 -33 3 2 -1 31 -4 35 -28 36 -26 1 -28 -2 -28 -37z"/>
<path d="M1435 4090 c-9 -29 4 -60 25 -60 10 0 21 4 24 8 3 5 -5 8 -17 8 -17
-1 -22 5 -22 24 0 19 5 25 22 24 12 0 20 3 17 8 -10 16 -43 8 -49 -12z"/>
<path d="M1530 4083 c0 -38 11 -52 38 -50 19 1 22 7 21 42 l-2 40 -6 -34 c-8
-48 -31 -53 -31 -7 0 20 -4 36 -10 36 -5 0 -10 -12 -10 -27z"/>
<path d="M1613 4070 c0 -25 2 -35 4 -22 2 12 2 32 0 45 -2 12 -4 2 -4 -23z"/>
<path d="M1686 4102 c-3 -6 2 -8 13 -5 10 3 21 0 25 -5 3 -5 -5 -13 -19 -16
-16 -4 -25 -13 -25 -26 0 -16 6 -20 30 -18 29 2 31 5 28 38 -2 27 -8 36 -25
38 -11 2 -24 -1 -27 -6z m44 -42 c0 -12 -28 -25 -36 -17 -9 9 6 27 22 27 8 0
14 -5 14 -10z"/>
<path d="M1761 4050 c1 -30 3 -47 6 -37 2 9 13 17 24 17 12 0 21 9 25 25 9 37
-2 55 -31 53 -24 -2 -25 -5 -24 -58z m44 20 c0 -27 -22 -39 -31 -16 -8 22 3
49 19 43 6 -2 12 -14 12 -27z"/>
<path d="M409 3737 c9 -9 2483 -9 2492 0 5 5 -556 8 -1246 8 -690 0 -1251 -3
-1246 -8z"/>
<path d="M3095 3549 l-49 -49 -1445 -3 -1446 -2 1450 -3 1451 -2 49 50 c27 27
47 52 44 54 -2 3 -27 -17 -54 -45z"/>
<path d="M1670 3241 c0 -44 3 -51 19 -51 31 0 51 11 51 29 -1 14 -2 14 -11 -1
-5 -10 -19 -18 -29 -18 -17 0 -20 7 -20 40 0 34 3 40 20 40 12 0 25 -10 30
-22 10 -23 10 -23 7 2 -2 20 -8 26 -34 28 l-33 3 0 -50z"/>
<path d="M1913 3240 c0 -30 2 -43 4 -27 2 15 2 39 0 55 -2 15 -4 2 -4 -28z"/>
<path d="M2328 3270 c-5 -17 3 -80 11 -80 7 0 6 79 -2 86 -3 3 -7 0 -9 -6z"/>
<path d="M1770 3245 c-24 -29 18 -72 43 -45 9 10 7 11 -10 6 -12 -4 -24 -2
-28 4 -4 6 5 10 20 10 21 0 26 4 21 16 -3 9 -6 18 -6 20 0 10 -29 3 -40 -11z
m35 -5 c3 -5 -3 -10 -15 -10 -12 0 -18 5 -15 10 3 6 10 10 15 10 5 0 12 -4 15
-10z"/>
<path d="M1840 3243 c0 -14 2 -15 9 -4 11 18 31 5 31 -20 0 -21 -25 -26 -33
-6 -3 7 -6 4 -6 -6 -1 -14 5 -18 22 -15 17 2 22 10 22 33 0 23 -5 31 -22 33
-17 3 -23 -2 -23 -15z"/>
<path d="M1942 3248 c-7 -7 -12 -16 -12 -22 0 -5 6 -1 14 10 11 15 17 16 27 7
16 -16 3 -47 -17 -39 -8 3 -12 2 -9 -4 18 -29 51 5 40 41 -7 22 -25 25 -43 7z"/>
<path d="M2071 3220 c1 -34 2 -34 8 -6 9 43 31 45 32 4 l1 -33 7 29 c9 42 29
44 34 4 l4 -33 1 37 2 37 -45 -2 c-45 -1 -45 -1 -44 -37z"/>
<path d="M2187 3253 c-4 -3 -7 -17 -7 -30 0 -26 26 -41 42 -25 8 8 5 9 -11 5
-11 -3 -21 -1 -21 5 0 6 10 13 23 15 l22 4 -22 2 c-13 0 -23 6 -23 12 0 6 9 9
20 6 11 -3 18 -1 14 4 -6 11 -28 12 -37 2z"/>
<path d="M2251 3223 c1 -28 3 -31 6 -13 6 35 22 48 33 30 8 -13 10 -12 10 3 0
12 -8 17 -25 17 -22 0 -25 -4 -24 -37z"/>
<path d="M2036 3233 c-3 -10 -9 -24 -12 -30 -3 -7 -1 -13 4 -13 5 0 13 12 16
26 8 30 2 44 -8 17z"/>
<path d="M987 2952 c-26 -26 -47 -51 -47 -57 0 -7 248 -10 724 -10 714 0 724
0 736 20 10 16 10 18 -1 8 -10 -10 -170 -13 -728 -13 l-715 0 44 45 44 45 707
0 c467 0 710 -4 714 -10 4 -6 11 -8 16 -4 5 3 7 10 4 15 -4 5 -292 9 -728 8
l-722 -1 -48 -46z"/>
<path d="M2434 2948 l-19 -23 23 19 c21 18 27 26 19 26 -2 0 -12 -10 -23 -22z"/>
<path d="M1313 2803 c-3 -10 -12 -33 -19 -50 -7 -19 -9 -33 -3 -33 5 0 9 5 9
10 0 14 43 13 58 -2 16 -16 15 -2 -4 49 -18 46 -31 54 -41 26z m27 -28 c0 -8
-4 -15 -10 -15 -5 0 -10 7 -10 15 0 8 5 15 10 15 6 0 10 -7 10 -15z"/>
<path d="M1570 2770 c0 -27 5 -50 10 -50 6 0 10 23 10 50 0 28 -4 50 -10 50
-5 0 -10 -22 -10 -50z"/>
<path d="M1812 2808 c-12 -15 -2 -80 14 -85 7 -2 10 14 9 42 -2 52 -7 61 -23
43z"/>
<path d="M1399 2791 c-5 -36 -3 -94 3 -97 5 -3 8 3 8 14 0 13 7 18 23 18 19
-1 22 4 22 34 0 31 -3 35 -27 36 -16 1 -28 -2 -29 -5z m46 -31 c0 -8 -8 -16
-17 -18 -13 -2 -18 3 -18 18 0 15 5 20 18 18 9 -2 17 -10 17 -18z"/>
<path d="M1480 2744 c0 -30 5 -54 10 -54 6 0 10 9 10 19 0 11 6 18 16 17 9 0
21 7 28 17 15 24 -3 51 -38 54 -25 2 -26 0 -26 -53z m50 16 c0 -11 -7 -20 -15
-20 -8 0 -15 9 -15 20 0 11 7 20 15 20 8 0 15 -9 15 -20z"/>
<path d="M1610 2760 c0 -22 5 -40 10 -40 6 0 10 18 10 40 0 22 -4 40 -10 40
-5 0 -10 -18 -10 -40z"/>
<path d="M1651 2781 c-6 -11 -11 -27 -11 -35 0 -17 42 -32 59 -21 19 11 12 25
-11 22 -15 -1 -23 3 -23 13 0 10 8 14 23 12 30 -3 24 22 -6 26 -13 2 -25 -4
-31 -17z"/>
<path d="M1735 2790 c-3 -6 4 -10 17 -10 18 0 20 -2 8 -10 -10 -6 -11 -10 -2
-10 6 0 12 -4 12 -10 0 -5 -7 -10 -15 -10 -8 0 -15 6 -15 13 0 8 -3 7 -9 -3
-14 -20 -5 -29 27 -28 23 1 28 5 26 22 -1 12 -3 29 -3 39 -1 18 -35 24 -46 7z"/>
<path d="M1860 2760 c0 -22 5 -40 10 -40 6 0 10 18 10 40 0 22 -4 40 -10 40
-5 0 -10 -18 -10 -40z"/>
<path d="M1904 2786 c-12 -31 0 -61 25 -61 31 0 50 28 35 53 -14 22 -52 28
-60 8z m46 -26 c0 -21 -24 -28 -35 -10 -8 14 3 30 21 30 8 0 14 -9 14 -20z"/>
<path d="M1991 2756 c1 -37 2 -38 8 -12 9 41 31 46 31 7 0 -17 5 -31 11 -31 6
0 9 16 7 38 -3 33 -6 37 -30 38 -26 1 -28 -1 -27 -40z"/>
<path d="M1610 2669 c1 -8 7 -25 15 -39 19 -33 18 -38 -2 -43 -10 -3 -3 -5 15
-6 19 -1 31 3 27 9 -3 5 1 23 10 39 21 42 19 58 -5 36 -19 -17 -21 -17 -40 0
-15 14 -20 15 -20 4z"/>
<path d="M1358 2583 c45 -2 119 -2 165 0 45 1 8 3 -83 3 -91 0 -128 -2 -82 -3z"/>
<path d="M1763 2583 c48 -2 125 -2 170 0 45 1 6 3 -88 3 -93 0 -130 -2 -82 -3z"/>
<path d="M1244 2345 c0 -126 2 -177 3 -112 2 65 2 168 0 230 -1 62 -3 9 -3
-118z"/>
<path d="M2053 2515 c0 -33 2 -45 4 -27 2 18 2 45 0 60 -2 15 -4 0 -4 -33z"/>
<path d="M1843 2525 c-7 -8 -13 -18 -13 -24 0 -5 6 -12 13 -14 10 -4 10 -6 0
-6 -17 -1 -16 -19 1 -37 10 -10 38 -14 90 -14 l76 0 0 55 0 55 -77 0 c-55 -1
-82 -5 -90 -15z m157 -40 l0 -45 -72 1 c-40 0 -67 3 -60 6 6 2 12 11 12 19 0
8 -6 14 -12 15 -10 0 -10 2 0 6 6 2 12 11 12 18 0 7 -6 16 -12 18 -7 3 20 6
60 6 l72 1 0 -45z m-133 19 c-3 -3 -12 -4 -19 -1 -8 3 -5 6 6 6 11 1 17 -2 13
-5z m0 -40 c-3 -3 -12 -4 -19 -1 -8 3 -5 6 6 6 11 1 17 -2 13 -5z"/>
<path d="M2054 2285 c0 -93 2 -133 3 -88 2 45 2 122 0 170 -1 48 -3 12 -3 -82z"/>
<path d="M1411 2288 c1 -29 4 -41 6 -26 3 20 11 28 31 31 l27 4 -27 2 c-17 0
-28 7 -28 15 0 8 12 17 28 19 25 4 25 4 -5 6 l-33 1 1 -52z"/>
<path d="M1490 2290 c0 -27 4 -50 9 -50 6 0 10 23 9 50 0 28 -4 50 -9 50 -5 0
-9 -22 -9 -50z"/>
<path d="M1608 2330 c-5 -17 3 -90 11 -90 3 0 5 21 4 46 -1 46 -8 65 -15 44z"/>
<path d="M1648 2330 c-5 -17 3 -90 11 -90 3 0 5 21 4 46 -1 46 -8 65 -15 44z"/>
<path d="M1532 2283 c-2 -35 1 -43 16 -43 11 0 13 3 5 8 -6 4 -13 23 -16 42
-4 33 -4 33 -5 -7z"/>
<path d="M1573 2280 c0 -25 2 -35 4 -22 2 12 2 32 0 45 -2 12 -4 2 -4 -23z"/>
<path d="M1692 2303 c-13 -25 3 -63 27 -63 11 0 22 4 25 9 3 4 -6 6 -19 3 -18
-3 -25 0 -25 12 0 11 9 16 26 16 20 0 25 4 20 16 -3 9 -6 18 -6 20 0 12 -41 1
-48 -13z m43 -3 c3 -5 -3 -10 -14 -10 -12 0 -21 5 -21 10 0 6 6 10 14 10 8 0
18 -4 21 -10z"/>
<path d="M1772 2278 c1 -41 1 -41 5 -8 3 19 10 38 16 42 8 5 6 8 -5 8 -15 0
-18 -8 -16 -42z"/>
<path d="M1585 2080 c-4 -17 -5 -34 -2 -36 2 -3 7 10 11 27 3 18 4 34 2 36 -2
3 -7 -10 -11 -27z"/>
<path d="M1801 2099 c-1 -8 6 -24 15 -35 15 -19 15 -19 6 1 -5 11 -12 27 -15
35 -5 13 -6 13 -6 -1z"/>
<path d="M2426 2000 l-49 -50 -244 0 c-207 0 -244 2 -249 15 -4 8 -11 15 -16
15 -6 0 -5 -6 2 -15 11 -13 -41 -15 -461 -17 -370 -2 -406 -3 -165 -5 302 -3
308 -4 303 -23 -3 -11 -1 -18 4 -14 5 3 9 12 9 20 0 12 28 14 164 14 122 0
166 -3 169 -12 4 -10 6 -10 6 0 1 9 57 12 244 12 l243 0 49 50 c27 27 47 52
44 54 -3 3 -27 -17 -53 -44z"/>
<path d="M1930 1854 c1 -16 29 -60 29 -44 0 8 -6 24 -14 34 -8 11 -15 16 -15
10z"/>
<path d="M1516 1799 c-8 -42 0 -50 9 -9 4 17 5 34 2 36 -2 3 -7 -10 -11 -27z"/>
<path d="M2064 1701 c1 -47 20 -69 50 -58 12 5 16 18 14 54 l-1 48 -6 -45 c-5
-36 -10 -45 -26 -45 -16 0 -21 9 -26 45 l-7 45 2 -44z"/>
<path d="M1997 1712 c3 -12 9 -25 14 -28 14 -8 11 10 -6 32 -13 18 -14 18 -8
-4z"/>
<path d="M2155 1700 c-8 -14 3 -30 21 -30 8 0 14 -5 14 -11 0 -6 -9 -9 -20 -6
-11 3 -18 1 -14 -4 11 -18 44 -10 44 11 0 11 -6 20 -14 20 -8 0 -18 5 -22 12
-5 8 0 9 14 6 12 -4 20 -2 16 3 -7 12 -31 11 -39 -1z"/>
<path d="M2230 1695 c-23 -28 17 -72 42 -47 8 8 5 9 -9 6 -12 -3 -24 -1 -27 5
-5 7 3 11 18 11 28 0 33 9 14 28 -16 16 -23 15 -38 -3z m35 -5 c3 -5 -3 -10
-15 -10 -12 0 -18 5 -15 10 3 6 10 10 15 10 5 0 12 -4 15 -10z"/>
<path d="M2295 1700 c-8 -14 3 -30 21 -30 8 0 14 -5 14 -11 0 -7 -9 -9 -21 -6
-16 4 -19 3 -11 -5 6 -6 18 -8 26 -5 20 8 21 37 2 37 -8 0 -18 5 -22 12 -5 8
0 9 14 6 12 -4 20 -2 16 3 -7 12 -31 11 -39 -1z"/>
<path d="M1485 1670 c-4 -17 -5 -34 -2 -36 3 -3 8 9 12 26 4 17 5 34 2 36 -3
3 -8 -9 -12 -26z"/>
<path d="M2055 1578 c4 -13 11 -27 16 -33 5 -5 4 5 -2 23 -12 36 -24 44 -14
10z"/>
<path d="M1452 1510 c0 -14 2 -19 5 -12 2 6 2 18 0 25 -3 6 -5 1 -5 -13z"/>
<path d="M2101 1450 c0 -8 4 -24 9 -35 5 -13 9 -14 9 -5 0 8 -4 24 -9 35 -5
13 -9 14 -9 5z"/>
<path d="M1424 1405 c-3 -8 -4 -20 -2 -27 3 -7 7 -1 10 15 6 29 1 36 -8 12z"/>
<path d="M2150 1359 c-11 -19 -13 -19 -36 -4 -32 21 -30 7 6 -41 16 -21 30
-43 30 -49 0 -7 333 -10 978 -10 l979 0 18 25 c19 25 18 25 -1 8 -19 -17 -81
-18 -989 -18 l-969 0 44 45 44 45 970 0 969 0 -24 -27 -24 -26 32 23 c18 13
30 27 27 32 -3 4 -445 8 -983 8 l-979 0 -36 -40 c-20 -22 -39 -40 -42 -40 -3
0 -3 20 0 45 8 49 3 57 -14 24z"/>
<path d="M1391 1268 c0 -9 -4 -25 -7 -35 -5 -17 -5 -17 6 0 6 10 9 25 7 35 -4
15 -5 15 -6 0z"/>
<path d="M2512 1178 c-7 -7 -12 -24 -12 -38 0 -14 5 -31 12 -38 15 -15 51 -15
66 0 18 18 14 38 -8 38 -22 0 -27 -15 -7 -23 6 -3 0 -6 -14 -6 -28 -1 -42 18
-33 44 7 17 40 20 49 5 4 -6 11 -8 16 -4 15 9 -10 34 -35 34 -12 0 -27 -5 -34
-12z"/>
<path d="M2889 1183 c-4 -49 -3 -93 4 -93 4 0 7 23 7 50 0 28 -2 50 -5 50 -3
0 -5 -3 -6 -7z"/>
<path d="M3050 1140 c0 -54 19 -71 21 -17 l1 32 9 -32 c5 -18 13 -33 18 -33 5
0 12 15 17 33 l8 32 3 -32 c6 -51 23 -39 23 17 0 59 -21 69 -40 18 l-13 -33
-10 33 c-16 51 -37 41 -37 -18z"/>
<path d="M3470 1140 c0 -27 5 -50 10 -50 6 0 10 9 10 20 0 13 7 20 20 20 13 0
20 -7 20 -20 0 -11 5 -20 10 -20 6 0 10 23 10 50 0 28 -4 50 -10 50 -5 0 -10
-9 -10 -20 0 -13 -7 -20 -20 -20 -13 0 -20 7 -20 20 0 11 -4 20 -10 20 -5 0
-10 -22 -10 -50z"/>
<path d="M3747 1172 c-10 -17 6 -82 19 -82 8 0 14 5 14 10 0 6 -4 10 -10 10
-5 0 -10 9 -10 20 0 11 5 20 10 20 6 0 10 4 10 9 0 11 -28 22 -33 13z"/>
<path d="M2620 1155 c-26 -31 13 -82 44 -56 19 16 21 42 4 59 -16 16 -33 15
-48 -3z m45 -25 c0 -8 -8 -16 -17 -18 -13 -2 -18 3 -18 18 0 15 5 20 18 18 9
-2 17 -10 17 -18z"/>
<path d="M2710 1155 c-26 -31 13 -82 44 -56 21 17 21 57 0 65 -23 9 -30 8 -44
-9z m45 -25 c0 -8 -8 -16 -17 -18 -13 -2 -18 3 -18 18 0 15 5 20 18 18 9 -2
17 -10 17 -18z"/>
<path d="M2801 1157 c-24 -24 2 -79 29 -62 5 3 10 1 10 -5 0 -8 -9 -10 -25 -6
-19 5 -23 3 -19 -9 8 -20 50 -19 58 1 3 9 6 33 6 54 0 33 -3 38 -24 38 -14 0
-29 -5 -35 -11z m39 -27 c0 -11 -7 -20 -15 -20 -8 0 -15 9 -15 20 0 11 7 20
15 20 8 0 15 -9 15 -20z"/>
<path d="M2932 1158 c-28 -28 0 -78 35 -63 16 7 15 9 -7 15 l-25 8 27 1 c24 1
26 4 19 24 -10 26 -31 33 -49 15z m35 -14 c-3 -3 -12 -4 -19 -1 -8 3 -5 6 6 6
11 1 17 -2 13 -5z"/>
<path d="M3175 1160 c-3 -6 4 -10 17 -11 l23 0 -22 -11 c-35 -17 -30 -47 7
-46 24 1 30 5 30 24 0 12 -3 29 -6 38 -7 18 -39 22 -49 6z m35 -40 c0 -5 -7
-10 -16 -10 -8 0 -12 5 -9 10 3 6 10 10 16 10 5 0 9 -4 9 -10z"/>
<path d="M3259 1166 c-5 -7 -2 -99 3 -102 5 -3 8 3 8 14 0 13 7 18 23 18 19
-1 22 4 22 34 0 31 -3 35 -27 36 -16 1 -28 1 -29 0z m46 -36 c0 -8 -8 -16 -17
-18 -13 -2 -18 3 -18 18 0 15 5 20 18 18 9 -2 17 -10 17 -18z"/>
<path d="M3347 1163 c-13 -12 -7 -22 21 -37 l27 -15 -29 -1 c-22 0 -27 -3 -19
-11 15 -15 47 -7 51 14 2 10 -5 21 -20 26 l-23 10 23 0 c13 1 20 5 17 11 -7
11 -38 13 -48 3z"/>
<path d="M3580 1155 c-26 -31 13 -82 44 -56 19 16 21 42 4 59 -16 16 -33 15
-48 -3z m45 -25 c0 -8 -8 -16 -17 -18 -13 -2 -18 3 -18 18 0 15 5 20 18 18 9
-2 17 -10 17 -18z"/>
<path d="M3667 1163 c-13 -12 -7 -22 21 -37 l27 -15 -29 -1 c-22 0 -27 -3 -19
-11 15 -15 47 -7 51 14 2 10 -5 21 -20 26 l-23 10 23 0 c13 1 20 5 17 11 -7
11 -38 13 -48 3z"/>
<path d="M1355 1120 c-4 -17 -5 -34 -2 -36 3 -3 8 9 12 26 4 17 5 34 2 36 -3
3 -8 -9 -12 -26z"/>
<path d="M1285 958 c17 -94 18 -94 58 -37 25 36 26 40 8 34 -14 -4 -21 -1 -24
12 -3 13 -5 12 -6 -6 l-1 -23 -20 23 -20 24 5 -27z"/>
<path d="M2861 764 c0 -11 3 -14 6 -6 3 7 2 16 -1 19 -3 4 -6 -2 -5 -13z"/>
<path d="M3671 764 c0 -11 3 -14 6 -6 3 7 2 16 -1 19 -3 4 -6 -2 -5 -13z"/>
<path d="M780 605 c-29 -73 -31 -81 -16 -62 17 22 52 22 60 1 4 -9 9 -15 11
-12 6 6 -32 98 -40 98 -3 0 -10 -11 -15 -25z m30 -21 c0 -8 -7 -14 -15 -14
-17 0 -18 2 -9 24 7 18 24 12 24 -10z"/>
<path d="M937 616 c-3 -8 -2 -18 3 -21 13 -8 20 9 11 24 -6 10 -10 9 -14 -3z"/>
<path d="M973 580 c1 -56 17 -70 17 -15 0 46 27 48 33 3 4 -33 4 -33 3 2 -1
28 -5 36 -24 38 -12 2 -20 8 -17 13 4 5 2 9 -4 9 -5 0 -9 -22 -8 -50z"/>
<path d="M1208 618 c-8 -24 7 -81 22 -85 12 -4 12 -2 2 5 -7 5 -12 24 -10 45
2 37 -6 58 -14 35z"/>
<path d="M1428 618 c-8 -24 7 -81 22 -85 12 -4 12 -2 2 5 -7 5 -12 24 -10 45
2 37 -6 58 -14 35z"/>
<path d="M862 573 c-2 -35 1 -43 16 -43 11 0 13 3 5 8 -6 4 -13 23 -16 42 -4
33 -4 33 -5 -7z"/>
<path d="M903 570 c0 -25 2 -35 4 -22 2 12 2 32 0 45 -2 12 -4 2 -4 -23z"/>
<path d="M1060 596 c-17 -22 -5 -66 20 -66 10 0 21 4 24 8 3 5 -4 8 -16 8 -12
-1 -23 5 -25 12 -3 7 5 12 22 12 20 0 26 4 23 17 -4 23 -31 28 -48 9z m40 -6
c0 -5 -9 -10 -21 -10 -11 0 -17 5 -14 10 3 6 13 10 21 10 8 0 14 -4 14 -10z"/>
<path d="M1131 566 l2 -41 6 35 c4 22 12 35 21 35 9 0 18 -13 22 -35 l6 -35
-1 40 c-2 36 -5 40 -29 41 -26 1 -28 -1 -27 -40z"/>
<path d="M1253 570 c0 -25 2 -35 4 -22 2 12 2 32 0 45 -2 12 -4 2 -4 -23z"/>
<path d="M1285 590 c-9 -29 4 -60 25 -60 10 0 21 4 24 8 3 5 -5 8 -17 8 -17
-1 -22 5 -22 24 0 19 5 25 22 24 12 0 20 3 17 8 -10 16 -43 8 -49 -12z"/>
<path d="M1355 600 c-4 -7 2 -9 19 -4 15 3 26 2 26 -4 0 -5 -12 -13 -26 -16
-35 -9 -29 -41 9 -42 26 -1 28 1 25 35 -2 28 -8 37 -25 39 -11 2 -24 -2 -28
-8z m45 -40 c0 -13 -28 -25 -38 -16 -3 4 0 11 8 16 20 13 30 12 30 0z"/>
<path d="M1473 570 c0 -25 2 -35 4 -22 2 12 2 32 0 45 -2 12 -4 2 -4 -23z"/>
<path d="M1512 598 c-27 -27 0 -77 34 -64 10 4 14 16 12 38 -3 35 -25 47 -46
26z m38 -28 c0 -20 -5 -30 -15 -30 -18 0 -30 24 -21 45 10 28 36 17 36 -15z"/>
<path d="M1580 569 c0 -22 5 -39 10 -39 6 0 10 16 10 35 0 46 27 48 33 3 4
-33 4 -33 3 2 -1 31 -4 35 -28 36 -26 1 -28 -2 -28 -37z"/>
<path d="M2982 543 l-2 -53 33 1 c29 2 29 2 5 6 -24 4 -27 9 -31 51 l-3 47 -2
-52z"/>
<path d="M3288 580 c-5 -17 3 -90 11 -90 3 0 5 21 4 46 -1 46 -8 65 -15 44z"/>
<path d="M3060 555 c-26 -31 13 -82 44 -56 19 16 21 42 4 59 -16 16 -33 15
-48 -3z m44 -10 c8 -21 -3 -45 -20 -45 -8 0 -17 7 -20 15 -8 21 2 45 20 45 7
0 16 -7 20 -15z"/>
<path d="M3135 550 c-9 -29 4 -60 25 -60 10 0 21 4 24 8 3 5 -5 8 -17 8 -17
-1 -22 5 -22 24 0 19 5 25 22 24 12 0 20 3 17 8 -10 16 -43 8 -49 -12z"/>
<path d="M3205 560 c-4 -7 2 -9 19 -4 34 8 34 -9 0 -25 -33 -15 -26 -36 12
-38 28 -1 29 0 26 38 -4 33 -8 39 -27 39 -13 0 -27 -5 -30 -10z m45 -40 c0
-13 -28 -25 -38 -16 -3 4 0 11 8 16 20 13 30 12 30 0z"/>
<path d="M3333 530 c0 -25 2 -35 4 -22 2 12 2 32 0 45 -2 12 -4 2 -4 -23z"/>
<path d="M3362 553 c-13 -25 3 -65 24 -61 26 5 41 35 28 56 -15 24 -41 27 -52
5z m43 -23 c0 -16 -6 -26 -17 -28 -14 -3 -18 3 -18 28 0 25 4 31 18 28 11 -2
17 -12 17 -28z"/>
<path d="M3442 528 l1 -43 4 38 c3 23 9 37 18 37 9 0 15 -14 18 -37 l4 -38 -1
40 c-1 33 -5 41 -23 43 -21 3 -23 0 -21 -40z"/>
<path d="M3517 563 c-13 -12 -7 -23 18 -35 33 -15 32 -32 -1 -25 -16 3 -22 1
-16 -5 15 -15 46 -5 50 14 2 12 -5 19 -22 24 -14 3 -26 11 -26 16 0 6 9 8 20
5 11 -3 20 -1 20 4 0 10 -33 12 -43 2z"/>
<path d="M940 540 c0 -5 5 -10 11 -10 5 0 7 5 4 10 -3 6 -8 10 -11 10 -2 0 -4
-4 -4 -10z"/>
<path d="M4145 220 l-49 -50 -976 -3 -975 -2 980 -3 981 -2 49 50 c27 27 47
52 44 55 -3 2 -27 -18 -54 -45z"/>
</g>
</svg>
