<svg xmlns="http://www.w3.org/2000/svg" xmlns:xlink="http://www.w3.org/1999/xlink" contentStyleType="text/css" data-diagram-type="DESCRIPTION" height="548px" preserveAspectRatio="none" style="width:455px;height:548px;background:#FFFFFF;" version="1.1" viewBox="0 0 455 548" width="455px" zoomAndPan="magnify"><title>Deployment Diagram</title><defs/><g><text fill="#000000" font-family="sans-serif" font-size="14" font-weight="bold" lengthAdjust="spacing" textLength="167.125" x="136.9375" y="22.9951">Deployment Diagram</text><!--cluster Smartphone--><g class="cluster" data-entity="Smartphone" data-source-line="3" data-uid="ent0002" id="cluster_Smartphone"><polygon fill="none" points="16,53.2969,26,43.2969,343,43.2969,343,195.5969,333,205.5969,16,205.5969,16,53.2969" style="stroke:#181818;stroke-width:1;"/><line style="stroke:#181818;stroke-width:1;" x1="333" x2="343" y1="53.2969" y2="43.2969"/><line style="stroke:#181818;stroke-width:1;" x1="16" x2="333" y1="53.2969" y2="53.2969"/><line style="stroke:#181818;stroke-width:1;" x1="333" x2="333" y1="53.2969" y2="205.5969"/><text fill="#000000" font-family="sans-serif" font-size="14" font-weight="bold" lengthAdjust="spacing" textLength="96.7832" x="127.1084" y="69.292">Smartphone</text></g><!--cluster <<executionEnvironment>> Android--><g class="cluster" data-entity="&lt;&lt;executionEnvironment&gt;&gt; Android" data-source-line="4" data-uid="ent0003" id="cluster_&lt;&lt;executionEnvironment&gt;&gt; Android"><rect fill="none" height="90.3" rx="2.5" ry="2.5" style="stroke:#181818;stroke-width:1;" width="279" x="40" y="91.2969"/><path d="M313.1768,91.2969 L313.1768,100.5938 L303.1768,110.5938 L40,110.5938" fill="none" style="stroke:#181818;stroke-width:1;"/><text fill="#000000" font-family="sans-serif" font-size="14" font-weight="bold" lengthAdjust="spacing" textLength="263.1768" x="43" y="105.292">&#171;executionEnvironment&#187; Android</text></g><!--cluster Application--><g class="cluster" data-entity="Application" data-source-line="9" data-uid="ent0005" id="cluster_Application"><polygon fill="none" points="105,264.5969,115,254.5969,270,254.5969,270,346.8869,260,356.8869,105,356.8869,105,264.5969" style="stroke:#181818;stroke-width:1;"/><line style="stroke:#181818;stroke-width:1;" x1="260" x2="270" y1="264.5969" y2="254.5969"/><line style="stroke:#181818;stroke-width:1;" x1="105" x2="260" y1="264.5969" y2="264.5969"/><line style="stroke:#181818;stroke-width:1;" x1="260" x2="260" y1="264.5969" y2="356.8869"/><text fill="#000000" font-family="sans-serif" font-size="14" font-weight="bold" lengthAdjust="spacing" textLength="89.2979" x="138.8511" y="280.592">Application</text></g><!--cluster Google Maps Host--><g class="cluster" data-entity="Google Maps Host" data-source-line="13" data-uid="ent0007" id="cluster_Google Maps Host"><polygon fill="none" points="220,423.8869,230,413.8869,438,413.8869,438,521.1869,428,531.1869,220,531.1869,220,423.8869" style="stroke:#181818;stroke-width:1;"/><line style="stroke:#181818;stroke-width:1;" x1="428" x2="438" y1="423.8869" y2="413.8869"/><line style="stroke:#181818;stroke-width:1;" x1="220" x2="428" y1="423.8869" y2="423.8869"/><line style="stroke:#181818;stroke-width:1;" x1="428" x2="428" y1="423.8869" y2="531.1869"/><text fill="#000000" font-family="sans-serif" font-size="14" font-weight="bold" lengthAdjust="spacing" textLength="142.8848" x="253.5576" y="439.882">Google Maps Host</text></g><!--entity Inclui.apk--><g class="entity" data-entity="Inclui.apk" data-source-line="5" data-uid="ent0004" id="entity_Inclui.apk"><rect fill="#F1F1F1" height="39.2969" rx="2.5" ry="2.5" style="stroke:#181818;stroke-width:0.5;" width="97.375" x="130.31" y="126.2969"/><polygon fill="#F1F1F1" points="210.685,131.2969,210.685,145.2969,222.685,145.2969,222.685,137.2969,216.685,131.2969,210.685,131.2969" style="stroke:#181818;stroke-width:0.5;"/><line style="stroke:#181818;stroke-width:0.5;" x1="216.685" x2="216.685" y1="131.2969" y2="137.2969"/><line style="stroke:#181818;stroke-width:0.5;" x1="222.685" x2="216.685" y1="137.2969" y2="137.2969"/><text fill="#000000" font-family="sans-serif" font-size="14" lengthAdjust="spacing" textLength="67.375" x="140.31" y="152.292">Inclui.apk</text></g><!--entity Flutter--><g class="entity" data-entity="Flutter" data-source-line="10" data-uid="ent0006" id="entity_Flutter"><rect fill="#F1F1F1" height="46.2969" rx="2.5" ry="2.5" style="stroke:#181818;stroke-width:0.5;" width="86.1631" x="135.92" y="294.5969"/><rect fill="#F1F1F1" height="10" style="stroke:#181818;stroke-width:0.5;" width="15" x="202.0831" y="299.5969"/><rect fill="#F1F1F1" height="2" style="stroke:#181818;stroke-width:0.5;" width="4" x="200.0831" y="301.5969"/><rect fill="#F1F1F1" height="2" style="stroke:#181818;stroke-width:0.5;" width="4" x="200.0831" y="305.5969"/><text fill="#000000" font-family="sans-serif" font-size="14" lengthAdjust="spacing" textLength="46.1631" x="150.92" y="327.592">Flutter</text></g><!--entity Locations--><g class="entity" data-entity="Locations" data-source-line="14" data-uid="ent0008" id="entity_Locations"><path d="M243.62,471.8869 C243.62,461.8869 286.9965,461.8869 286.9965,461.8869 C286.9965,461.8869 330.3729,461.8869 330.3729,471.8869 L330.3729,497.1838 C330.3729,507.1838 286.9965,507.1838 286.9965,507.1838 C286.9965,507.1838 243.62,507.1838 243.62,497.1838 L243.62,471.8869" fill="#F1F1F1" style="stroke:#181818;stroke-width:0.5;"/><path d="M243.62,471.8869 C243.62,481.8869 286.9965,481.8869 286.9965,481.8869 C286.9965,481.8869 330.3729,481.8869 330.3729,471.8869" fill="none" style="stroke:#181818;stroke-width:0.5;"/><text fill="#000000" font-family="sans-serif" font-size="14" lengthAdjust="spacing" textLength="66.7529" x="253.62" y="498.882">Locations</text></g><!--entity Authentication--><g class="entity" data-entity="Authentication" data-source-line="18" data-uid="ent0009" id="entity_Authentication"><polygon fill="#F1F1F1" points="53.61,471.3869,63.61,461.3869,196.3815,461.3869,196.3815,497.6838,186.3815,507.6838,53.61,507.6838,53.61,471.3869" style="stroke:#181818;stroke-width:0.5;"/><line style="stroke:#181818;stroke-width:0.5;" x1="186.3815" x2="196.3815" y1="471.3869" y2="461.3869"/><line style="stroke:#181818;stroke-width:0.5;" x1="53.61" x2="186.3815" y1="471.3869" y2="471.3869"/><line style="stroke:#181818;stroke-width:0.5;" x1="186.3815" x2="186.3815" y1="471.3869" y2="507.6838"/><text fill="#000000" font-family="sans-serif" font-size="14" lengthAdjust="spacing" textLength="102.7715" x="68.61" y="494.382">Authentication</text></g><!--link Inclui.apk to Flutter--><g class="link" data-entity-1="Inclui.apk" data-entity-2="Flutter" data-source-line="21" data-uid="lnk10" id="link_Inclui.apk_Flutter"><path d="M179,166.0969 C179,197.6669 179,254.4869 179,288.1669" fill="none" id="Inclui.apk-to-Flutter" style="stroke:#181818;stroke-width:1;stroke-dasharray:7.0,7.0;"/><polygon fill="#181818" points="179,294.1669,183,285.1669,179,289.1669,175,285.1669,179,294.1669" style="stroke:#181818;stroke-width:1;"/><text fill="#000000" font-family="sans-serif" font-size="13" lengthAdjust="spacing" textLength="79.5171" x="180" y="234.6638">Deployment</text></g><!--link Flutter to Google Maps Host--><g class="link" data-entity-1="Flutter" data-entity-2="Google Maps Host" data-source-line="22" data-uid="lnk11" id="link_Flutter_Google Maps Host"><path d="M222.26,328.0069 C260.49,338.4669 314.88,359.3069 346,397.8869 C348.9725,401.5719 351.5184,405.6203 353.6975,409.8901 C354.2423,410.9576 354.7641,412.0389 355.264,413.1318 C355.3265,413.2684 352.9212,407.936 352.983,408.073" fill="none" id="Flutter-to-Google Maps Host" style="stroke:#181818;stroke-width:1;stroke-dasharray:7.0,7.0;"/><polygon fill="#181818" points="355.4504,413.5422,355.3954,403.6935,353.3942,408.9845,348.1031,406.9834,355.4504,413.5422" style="stroke:#181818;stroke-width:1;"/><text fill="#000000" font-family="sans-serif" font-size="13" lengthAdjust="spacing" textLength="31.0591" x="337" y="385.9538">Uses</text></g><!--link Flutter to Authentication--><g class="link" data-entity-1="Flutter" data-entity-2="Authentication" data-source-line="23" data-uid="lnk12" id="link_Flutter_Authentication"><path d="M171.6,341.3069 C161.29,372.7769 144.5685,423.8152 134.2585,455.2752" fill="none" id="Flutter-to-Authentication" style="stroke:#181818;stroke-width:1;stroke-dasharray:7.0,7.0;"/><polygon fill="#181818" points="132.39,460.9769,138.9939,453.6701,133.9471,456.2255,131.3917,451.1787,132.39,460.9769" style="stroke:#181818;stroke-width:1;"/></g><!--SRC=[PP1BQWCn38RtFeNmfhivG0W3eUaBsbNf0LIFafXw96DhIal9tQkPOYQaMlf_V3_Mg8bWJpd9zqYii8zuB3Wwnp8G-DSHY-QJC7duSM1tCDM4xPQ-A4mQXU_uCnRXETxtiEEXI1oQVJwhY0SC2lw9GvfYX_d3B-hPdHjfbtEA0UV2bWqoPYFRAd-V9bKgVlK_Y1nj-Wlc2ezIjOK6L7p7Qevd-QkhIwfX9ZrPOoCvTmEtmanXSRhBXT1r_Kg6pSKtkVLvCVqViu6tIlNQTqN_1G00]--></g></svg>