<?xml version="1.0" encoding="us-ascii" standalone="no"?><svg xmlns="http://www.w3.org/2000/svg" xmlns:xlink="http://www.w3.org/1999/xlink" contentStyleType="text/css" height="384px" preserveAspectRatio="none" style="width:829px;height:384px;background:#FFFFFF;" version="1.1" viewBox="0 0 829 384" width="829px" zoomAndPan="magnify"><defs/><g><!--class User--><g id="elem_User"><rect codeLine="5" fill="#F1F1F1" height="113.9531" id="User" rx="2.5" ry="2.5" style="stroke:#181818;stroke-width:0.5;" width="151" x="7" y="7"/><ellipse cx="62.75" cy="23" fill="#ADD1B2" rx="11" ry="11" style="stroke:#181818;stroke-width:1.0;"/><path d="M65.2231,29.1431 Q64.6421,29.4419 64.0029,29.5913 Q63.3638,29.7407 62.6582,29.7407 Q60.1514,29.7407 58.8315,28.0889 Q57.5117,26.437 57.5117,23.3159 Q57.5117,20.1865 58.8315,18.5347 Q60.1514,16.8828 62.6582,16.8828 Q63.3638,16.8828 64.0112,17.0322 Q64.6587,17.1816 65.2231,17.4805 L65.2231,20.2031 Q64.5923,19.6221 63.9988,19.3523 Q63.4053,19.0825 62.7744,19.0825 Q61.4297,19.0825 60.7449,20.1492 Q60.0601,21.2158 60.0601,23.3159 Q60.0601,25.4077 60.7449,26.4744 Q61.4297,27.541 62.7744,27.541 Q63.4053,27.541 63.9988,27.2712 Q64.5923,27.0015 65.2231,26.4204 Z " fill="#000000"/><text fill="#000000" font-family="sans-serif" font-size="14" lengthAdjust="spacing" textLength="31" x="83.25" y="28.291">User</text><line style="stroke:#181818;stroke-width:0.5;" x1="8" x2="157" y1="39" y2="39"/><ellipse cx="18" cy="52.7441" fill="none" rx="3" ry="3" style="stroke:#038048;stroke-width:1.0;"/><text fill="#000000" font-family="sans-serif" font-size="14" lengthAdjust="spacing" textLength="87" x="27" y="56.5352">name: String</text><ellipse cx="18" cy="69.2324" fill="none" rx="3" ry="3" style="stroke:#038048;stroke-width:1.0;"/><text fill="#000000" font-family="sans-serif" font-size="14" lengthAdjust="spacing" textLength="86" x="27" y="73.0234">email: String</text><ellipse cx="18" cy="85.7207" fill="none" rx="3" ry="3" style="stroke:#038048;stroke-width:1.0;"/><text fill="#000000" font-family="sans-serif" font-size="14" lengthAdjust="spacing" textLength="115" x="27" y="89.5117">password: String</text><ellipse cx="18" cy="102.209" fill="none" rx="3" ry="3" style="stroke:#038048;stroke-width:1.0;"/><text fill="#000000" font-family="sans-serif" font-size="14" lengthAdjust="spacing" textLength="125" x="27" y="106">validated: Boolean</text><line style="stroke:#181818;stroke-width:0.5;" x1="8" x2="157" y1="112.9531" y2="112.9531"/></g><!--class Place--><g id="elem_Place"><rect codeLine="12" fill="#F1F1F1" height="97.4648" id="Place" rx="2.5" ry="2.5" style="stroke:#181818;stroke-width:0.5;" width="130" x="495.5" y="15.24"/><ellipse cx="538.85" cy="31.24" fill="#ADD1B2" rx="11" ry="11" style="stroke:#181818;stroke-width:1.0;"/><path d="M541.3231,37.3831 Q540.7421,37.6819 540.1029,37.8313 Q539.4638,37.9807 538.7582,37.9807 Q536.2514,37.9807 534.9315,36.3289 Q533.6117,34.677 533.6117,31.5559 Q533.6117,28.4265 534.9315,26.7747 Q536.2514,25.1228 538.7582,25.1228 Q539.4638,25.1228 540.1112,25.2722 Q540.7587,25.4216 541.3231,25.7205 L541.3231,28.4431 Q540.6923,27.8621 540.0988,27.5923 Q539.5053,27.3225 538.8744,27.3225 Q537.5297,27.3225 536.8449,28.3892 Q536.1601,29.4558 536.1601,31.5559 Q536.1601,33.6477 536.8449,34.7144 Q537.5297,35.781 538.8744,35.781 Q539.5053,35.781 540.0988,35.5112 Q540.6923,35.2415 541.3231,34.6604 Z " fill="#000000"/><text fill="#000000" font-family="sans-serif" font-size="14" lengthAdjust="spacing" textLength="35" x="559.15" y="36.531">Place</text><line style="stroke:#181818;stroke-width:0.5;" x1="496.5" x2="624.5" y1="47.24" y2="47.24"/><ellipse cx="506.5" cy="60.9841" fill="none" rx="3" ry="3" style="stroke:#038048;stroke-width:1.0;"/><text fill="#000000" font-family="sans-serif" font-size="14" lengthAdjust="spacing" textLength="87" x="515.5" y="64.7752">name: String</text><ellipse cx="506.5" cy="77.4724" fill="none" rx="3" ry="3" style="stroke:#038048;stroke-width:1.0;"/><text fill="#000000" font-family="sans-serif" font-size="14" lengthAdjust="spacing" textLength="104" x="515.5" y="81.2634">location: String</text><ellipse cx="506.5" cy="93.9607" fill="none" rx="3" ry="3" style="stroke:#038048;stroke-width:1.0;"/><text fill="#000000" font-family="sans-serif" font-size="14" lengthAdjust="spacing" textLength="78" x="515.5" y="97.7517">type: String</text><line style="stroke:#181818;stroke-width:0.5;" x1="496.5" x2="624.5" y1="104.7048" y2="104.7048"/></g><!--class AccessibilityIssue--><g id="elem_AccessibilityIssue"><rect codeLine="18" fill="#F1F1F1" height="48" id="AccessibilityIssue" rx="2.5" ry="2.5" style="stroke:#181818;stroke-width:0.5;" width="150" x="246.5" y="325.89"/><ellipse cx="261.5" cy="341.89" fill="#EB937F" rx="11" ry="11" style="stroke:#181818;stroke-width:1.0;"/><path d="M265.1143,348.39 L257.3945,348.39 L257.3945,335.9969 L265.1143,335.9969 L265.1143,338.1551 L259.8433,338.1551 L259.8433,340.828 L264.6162,340.828 L264.6162,342.9862 L259.8433,342.9862 L259.8433,346.2318 L265.1143,346.2318 Z " fill="#000000"/><text fill="#000000" font-family="sans-serif" font-size="14" lengthAdjust="spacing" textLength="118" x="275.5" y="347.181">AccessibilityIssue</text><line style="stroke:#181818;stroke-width:0.5;" x1="247.5" x2="395.5" y1="357.89" y2="357.89"/><line style="stroke:#181818;stroke-width:0.5;" x1="247.5" x2="395.5" y1="365.89" y2="365.89"/></g><!--class Report--><g id="elem_Report"><rect codeLine="21" fill="#F1F1F1" height="80.9766" id="Report" rx="2.5" ry="2.5" style="stroke:#181818;stroke-width:0.5;" width="139" x="252" y="180.95"/><ellipse cx="294.45" cy="196.95" fill="#ADD1B2" rx="11" ry="11" style="stroke:#181818;stroke-width:1.0;"/><path d="M296.9231,203.0931 Q296.3421,203.3919 295.7029,203.5413 Q295.0638,203.6907 294.3582,203.6907 Q291.8514,203.6907 290.5315,202.0389 Q289.2117,200.387 289.2117,197.2659 Q289.2117,194.1365 290.5315,192.4847 Q291.8514,190.8328 294.3582,190.8328 Q295.0638,190.8328 295.7112,190.9822 Q296.3587,191.1316 296.9231,191.4305 L296.9231,194.1531 Q296.2923,193.5721 295.6988,193.3023 Q295.1053,193.0325 294.4744,193.0325 Q293.1297,193.0325 292.4449,194.0992 Q291.7601,195.1658 291.7601,197.2659 Q291.7601,199.3577 292.4449,200.4244 Q293.1297,201.491 294.4744,201.491 Q295.1053,201.491 295.6988,201.2212 Q296.2923,200.9515 296.9231,200.3704 Z " fill="#000000"/><text fill="#000000" font-family="sans-serif" font-size="14" lengthAdjust="spacing" textLength="46" x="314.55" y="202.241">Report</text><line style="stroke:#181818;stroke-width:0.5;" x1="253" x2="390" y1="212.95" y2="212.95"/><ellipse cx="263" cy="226.6941" fill="none" rx="3" ry="3" style="stroke:#038048;stroke-width:1.0;"/><text fill="#000000" font-family="sans-serif" font-size="14" lengthAdjust="spacing" textLength="113" x="272" y="230.4852">reportDate: Date</text><ellipse cx="263" cy="243.1824" fill="none" rx="3" ry="3" style="stroke:#038048;stroke-width:1.0;"/><text fill="#000000" font-family="sans-serif" font-size="14" lengthAdjust="spacing" textLength="90" x="272" y="246.9734">status: String</text><line style="stroke:#181818;stroke-width:0.5;" x1="253" x2="390" y1="253.9266" y2="253.9266"/></g><g id="elem_GMN9"><path d="M192.5,36.01 L192.5,59.86 L158.37,63.86 L192.5,67.86 L192.5,91.9416 A0,0 0 0 0 192.5,91.9416 L460.5,91.9416 A0,0 0 0 0 460.5,91.9416 L460.5,46.01 L450.5,36.01 L192.5,36.01 A0,0 0 0 0 192.5,36.01 " fill="#FEFFDD" style="stroke:#181818;stroke-width:0.5;"/><path d="M450.5,36.01 L450.5,46.01 L460.5,46.01 L450.5,36.01 " fill="#FEFFDD" style="stroke:#181818;stroke-width:0.5;"/><text fill="#000000" font-family="sans-serif" font-size="13" lengthAdjust="spacing" textLength="200" x="198.5" y="53.5784">A user must be validated before</text><text fill="#000000" font-family="sans-serif" font-size="13" lengthAdjust="spacing" textLength="225" x="198.5" y="68.8889">they can report accessibility issues.</text><text fill="#000000" font-family="sans-serif" font-size="13" lengthAdjust="spacing" textLength="247" x="198.5" y="84.1995">A user can only report each place once.</text></g><g id="elem_GMN12"><path d="M661,28.35 L661,59.86 L625.85,63.86 L661,67.86 L661,99.5922 A0,0 0 0 0 661,99.5922 L822,99.5922 A0,0 0 0 0 822,99.5922 L822,38.35 L812,28.35 L661,28.35 A0,0 0 0 0 661,28.35 " fill="#FEFFDD" style="stroke:#181818;stroke-width:0.5;"/><path d="M812,28.35 L812,38.35 L822,38.35 L812,28.35 " fill="#FEFFDD" style="stroke:#181818;stroke-width:0.5;"/><text fill="#000000" font-family="sans-serif" font-size="13" lengthAdjust="spacing" textLength="105" x="667" y="45.9184">A place can have</text><text fill="#000000" font-family="sans-serif" font-size="13" lengthAdjust="spacing" textLength="105" x="667" y="61.2289">multiple reports,</text><text fill="#000000" font-family="sans-serif" font-size="13" lengthAdjust="spacing" textLength="111" x="667" y="76.5395">but each report is</text><text fill="#000000" font-family="sans-serif" font-size="13" lengthAdjust="spacing" textLength="140" x="667" y="91.85">tied to a specific user.</text></g><g id="elem_GMN15"><path d="M431,321.93 L431,345.86 L396.87,349.86 L431,353.86 L431,377.8616 A0,0 0 0 0 431,377.8616 L580,377.8616 A0,0 0 0 0 580,377.8616 L580,331.93 L570,321.93 L431,321.93 A0,0 0 0 0 431,321.93 " fill="#FEFFDD" style="stroke:#181818;stroke-width:0.5;"/><path d="M570,321.93 L570,331.93 L580,331.93 L570,321.93 " fill="#FEFFDD" style="stroke:#181818;stroke-width:0.5;"/><text fill="#000000" font-family="sans-serif" font-size="13" lengthAdjust="spacing" textLength="128" x="437" y="339.4984">A report can contain</text><text fill="#000000" font-family="sans-serif" font-size="13" lengthAdjust="spacing" textLength="123" x="437" y="354.8089">multiple predefined</text><text fill="#000000" font-family="sans-serif" font-size="13" lengthAdjust="spacing" textLength="126" x="437" y="370.1195">accessibility issues.</text></g><!--link User to Report--><g id="link_User_Report"><path codeLine="26" d="M158.29,116.86 C220.48,116.86 298.33,116.86 298.33,116.86 C298.33,116.86 298.33,151.34 298.33,180.71 " fill="none" id="User-Report" style="stroke:#181818;stroke-width:1.0;"/><text fill="#000000" font-family="sans-serif" font-size="13" lengthAdjust="spacing" textLength="8" x="165.895" y="118.7688">1</text><text fill="#000000" font-family="sans-serif" font-size="13" lengthAdjust="spacing" textLength="6" x="287.9956" y="170.3163">*</text></g><!--link Place to Report--><g id="link_Place_Report"><path codeLine="27" d="M495.16,101.86 C431.63,101.86 344.67,101.86 344.67,101.86 C344.67,101.86 344.67,145.98 344.67,180.62 " fill="none" id="Place-Report" style="stroke:#181818;stroke-width:1.0;"/><text fill="#000000" font-family="sans-serif" font-size="13" lengthAdjust="spacing" textLength="8" x="479.5759" y="102.769">1</text><text fill="#000000" font-family="sans-serif" font-size="13" lengthAdjust="spacing" textLength="6" x="342.0107" y="170.2114">*</text></g><!--link Report to AccessibilityIssue--><g id="link_Report_AccessibilityIssue"><path codeLine="29" d="M321.5,262.08 C321.5,282.96 321.5,307.69 321.5,325.58 " fill="none" id="Report-AccessibilityIssue" style="stroke:#181818;stroke-width:1.0;"/><polygon fill="#000000" points="257.5,307.4853,260.4389,298.4402,254.5611,298.4402,257.5,307.4853" style="stroke:#000000;stroke-width:1.0;"/><text fill="#000000" font-family="sans-serif" font-size="13" lengthAdjust="spacing" textLength="54" x="266.5" y="307.3984">contains</text><text fill="#000000" font-family="sans-serif" font-size="13" lengthAdjust="spacing" textLength="8" x="312.8625" y="282.3457">1</text><text fill="#000000" font-family="sans-serif" font-size="13" lengthAdjust="spacing" textLength="6" x="314.7313" y="315.0368">*</text></g><!--SRC=[TPBDJiCm48JlVefLZ_nKuje3KX4NRWZ40soTJRF2iItlfYX2l3js_cXfcqCaZpVppOuYd-mZ9cp1iIVj8q4ChYy78-Tt8MaJZB4EHU13AC6tWVpSUcnf0- -QsEz7XLfaToh5_DLNIDMfUa375Ifb-Ia4H-ZDpunuTMZfEiC5Yyh1dwebwQ9aA_9T2rjhIOHtx5Zx5v6ks2wSDufvjHcKXjDpphI1yXvLKTHEZes70bOFAxY_XzNDQd8nO-XptKoKeviBgJPWWrTaB_1eZ0zAa7ZVA8HwQDnieIlSjXE57S5INpxK8H4ORQW7Ynx6FG2F8S258klPfim5x_fvcD0s48SDWhUqpkrLK5Bypp9icLt6sMBJu27JsyufHqUJeTo1sNMJxyHWoI4v9zO021B9Sirso7ETTrvLXa-6XJwrziUFYIggyvzRWRbSmOBw1G00]--></g></svg>