<?xml version="1.0" encoding="us-ascii" standalone="no"?><svg xmlns="http://www.w3.org/2000/svg" xmlns:xlink="http://www.w3.org/1999/xlink" contentStyleType="text/css" height="526px" preserveAspectRatio="none" style="width:994px;height:526px;background:#FFFFFF;" version="1.1" viewBox="0 0 994 526" width="994px" zoomAndPan="magnify"><defs/><g><!--class User--><g id="elem_User"><rect codeLine="3" fill="#F1F1F1" height="130.4414" id="User" rx="2.5" ry="2.5" style="stroke:#181818;stroke-width:0.5;" width="180" x="149.5" y="7"/><ellipse cx="219.75" cy="23" fill="#ADD1B2" rx="11" ry="11" style="stroke:#181818;stroke-width:1.0;"/><path d="M222.2231,29.1431 Q221.6421,29.4419 221.0029,29.5913 Q220.3638,29.7407 219.6582,29.7407 Q217.1514,29.7407 215.8315,28.0889 Q214.5117,26.437 214.5117,23.3159 Q214.5117,20.1865 215.8315,18.5347 Q217.1514,16.8828 219.6582,16.8828 Q220.3638,16.8828 221.0112,17.0322 Q221.6587,17.1816 222.2231,17.4805 L222.2231,20.2031 Q221.5923,19.6221 220.9988,19.3523 Q220.4053,19.0825 219.7744,19.0825 Q218.4297,19.0825 217.7449,20.1492 Q217.0601,21.2158 217.0601,23.3159 Q217.0601,25.4077 217.7449,26.4744 Q218.4297,27.541 219.7744,27.541 Q220.4053,27.541 220.9988,27.2712 Q221.5923,27.0015 222.2231,26.4204 Z " fill="#000000"/><text fill="#000000" font-family="sans-serif" font-size="14" lengthAdjust="spacing" textLength="31" x="240.25" y="28.291">User</text><line style="stroke:#181818;stroke-width:0.5;" x1="150.5" x2="328.5" y1="39" y2="39"/><ellipse cx="160.5" cy="52.7441" fill="none" rx="3" ry="3" style="stroke:#038048;stroke-width:1.0;"/><text fill="#000000" font-family="sans-serif" font-size="14" lengthAdjust="spacing" textLength="154" x="169.5" y="56.5352">userId: String {unique}</text><ellipse cx="160.5" cy="69.2324" fill="none" rx="3" ry="3" style="stroke:#038048;stroke-width:1.0;"/><text fill="#000000" font-family="sans-serif" font-size="14" lengthAdjust="spacing" textLength="87" x="169.5" y="73.0234">name: String</text><ellipse cx="160.5" cy="85.7207" fill="none" rx="3" ry="3" style="stroke:#038048;stroke-width:1.0;"/><text fill="#000000" font-family="sans-serif" font-size="14" lengthAdjust="spacing" textLength="86" x="169.5" y="89.5117">email: String</text><ellipse cx="160.5" cy="102.209" fill="none" rx="3" ry="3" style="stroke:#038048;stroke-width:1.0;"/><text fill="#000000" font-family="sans-serif" font-size="14" lengthAdjust="spacing" textLength="115" x="169.5" y="106">password: String</text><ellipse cx="160.5" cy="118.6973" fill="none" rx="3" ry="3" style="stroke:#038048;stroke-width:1.0;"/><text fill="#000000" font-family="sans-serif" font-size="14" lengthAdjust="spacing" textLength="125" x="169.5" y="122.4883">validated: Boolean</text><line style="stroke:#181818;stroke-width:0.5;" x1="150.5" x2="328.5" y1="129.4414" y2="129.4414"/></g><!--class Place--><g id="elem_Place"><rect codeLine="11" fill="#F1F1F1" height="113.9531" id="Place" rx="2.5" ry="2.5" style="stroke:#181818;stroke-width:0.5;" width="186" x="492.5" y="214.44"/><ellipse cx="563.75" cy="230.44" fill="#ADD1B2" rx="11" ry="11" style="stroke:#181818;stroke-width:1.0;"/><path d="M566.2231,236.5831 Q565.6421,236.8819 565.0029,237.0313 Q564.3638,237.1807 563.6582,237.1807 Q561.1514,237.1807 559.8315,235.5289 Q558.5117,233.877 558.5117,230.7559 Q558.5117,227.6265 559.8315,225.9747 Q561.1514,224.3228 563.6582,224.3228 Q564.3638,224.3228 565.0112,224.4722 Q565.6587,224.6216 566.2231,224.9205 L566.2231,227.6431 Q565.5923,227.0621 564.9988,226.7923 Q564.4053,226.5225 563.7744,226.5225 Q562.4297,226.5225 561.7449,227.5892 Q561.0601,228.6558 561.0601,230.7559 Q561.0601,232.8477 561.7449,233.9144 Q562.4297,234.981 563.7744,234.981 Q564.4053,234.981 564.9988,234.7112 Q565.5923,234.4415 566.2231,233.8604 Z " fill="#000000"/><text fill="#000000" font-family="sans-serif" font-size="14" lengthAdjust="spacing" textLength="35" x="584.25" y="235.731">Place</text><line style="stroke:#181818;stroke-width:0.5;" x1="493.5" x2="677.5" y1="246.44" y2="246.44"/><ellipse cx="503.5" cy="260.1841" fill="none" rx="3" ry="3" style="stroke:#038048;stroke-width:1.0;"/><text fill="#000000" font-family="sans-serif" font-size="14" lengthAdjust="spacing" textLength="160" x="512.5" y="263.9752">placeId: String {unique}</text><ellipse cx="503.5" cy="276.6724" fill="none" rx="3" ry="3" style="stroke:#038048;stroke-width:1.0;"/><text fill="#000000" font-family="sans-serif" font-size="14" lengthAdjust="spacing" textLength="87" x="512.5" y="280.4634">name: String</text><ellipse cx="503.5" cy="293.1607" fill="none" rx="3" ry="3" style="stroke:#038048;stroke-width:1.0;"/><text fill="#000000" font-family="sans-serif" font-size="14" lengthAdjust="spacing" textLength="104" x="512.5" y="296.9517">location: String</text><ellipse cx="503.5" cy="309.649" fill="none" rx="3" ry="3" style="stroke:#038048;stroke-width:1.0;"/><text fill="#000000" font-family="sans-serif" font-size="14" lengthAdjust="spacing" textLength="78" x="512.5" y="313.44">type: String</text><line style="stroke:#181818;stroke-width:0.5;" x1="493.5" x2="677.5" y1="320.3931" y2="320.3931"/></g><!--class AccessibilityIssue--><g id="elem_AccessibilityIssue"><rect codeLine="18" fill="#F1F1F1" height="113.9531" id="AccessibilityIssue" rx="2.5" ry="2.5" style="stroke:#181818;stroke-width:0.5;" width="185" x="493" y="405.4"/><ellipse cx="523.75" cy="421.4" fill="#ADD1B2" rx="11" ry="11" style="stroke:#181818;stroke-width:1.0;"/><path d="M526.2231,427.5431 Q525.6421,427.8419 525.0029,427.9913 Q524.3638,428.1407 523.6582,428.1407 Q521.1514,428.1407 519.8315,426.4889 Q518.5117,424.837 518.5117,421.7159 Q518.5117,418.5865 519.8315,416.9347 Q521.1514,415.2828 523.6582,415.2828 Q524.3638,415.2828 525.0112,415.4322 Q525.6587,415.5816 526.2231,415.8805 L526.2231,418.6031 Q525.5923,418.0221 524.9988,417.7523 Q524.4053,417.4825 523.7744,417.4825 Q522.4297,417.4825 521.7449,418.5492 Q521.0601,419.6158 521.0601,421.7159 Q521.0601,423.8077 521.7449,424.8744 Q522.4297,425.941 523.7744,425.941 Q524.4053,425.941 524.9988,425.6712 Q525.5923,425.4015 526.2231,424.8204 Z " fill="#000000"/><text fill="#000000" font-family="sans-serif" font-size="14" lengthAdjust="spacing" textLength="118" x="541.25" y="426.691">AccessibilityIssue</text><line style="stroke:#181818;stroke-width:0.5;" x1="494" x2="677" y1="437.4" y2="437.4"/><ellipse cx="504" cy="451.1441" fill="none" rx="3" ry="3" style="stroke:#038048;stroke-width:1.0;"/><text fill="#000000" font-family="sans-serif" font-size="14" lengthAdjust="spacing" textLength="159" x="513" y="454.9352">issueId: String {unique}</text><ellipse cx="504" cy="467.6324" fill="none" rx="3" ry="3" style="stroke:#038048;stroke-width:1.0;"/><text fill="#000000" font-family="sans-serif" font-size="14" lengthAdjust="spacing" textLength="126" x="513" y="471.4234">description: String</text><ellipse cx="504" cy="484.1207" fill="none" rx="3" ry="3" style="stroke:#038048;stroke-width:1.0;"/><text fill="#000000" font-family="sans-serif" font-size="14" lengthAdjust="spacing" textLength="101" x="513" y="487.9117">severity: String</text><ellipse cx="504" cy="500.609" fill="none" rx="3" ry="3" style="stroke:#038048;stroke-width:1.0;"/><text fill="#000000" font-family="sans-serif" font-size="14" lengthAdjust="spacing" textLength="130" x="513" y="504.4">reportedDate: Date</text><line style="stroke:#181818;stroke-width:0.5;" x1="494" x2="677" y1="511.3531" y2="511.3531"/></g><!--class Report--><g id="elem_Report"><rect codeLine="25" fill="#F1F1F1" height="97.4648" id="Report" rx="2.5" ry="2.5" style="stroke:#181818;stroke-width:0.5;" width="193" x="7" y="413.64"/><ellipse cx="76.25" cy="429.64" fill="#ADD1B2" rx="11" ry="11" style="stroke:#181818;stroke-width:1.0;"/><path d="M78.7231,435.7831 Q78.1421,436.0819 77.5029,436.2313 Q76.8638,436.3807 76.1582,436.3807 Q73.6514,436.3807 72.3315,434.7289 Q71.0117,433.077 71.0117,429.9559 Q71.0117,426.8265 72.3315,425.1747 Q73.6514,423.5228 76.1582,423.5228 Q76.8638,423.5228 77.5112,423.6722 Q78.1587,423.8216 78.7231,424.1205 L78.7231,426.8431 Q78.0923,426.2621 77.4988,425.9923 Q76.9053,425.7225 76.2744,425.7225 Q74.9297,425.7225 74.2449,426.7892 Q73.5601,427.8558 73.5601,429.9559 Q73.5601,432.0477 74.2449,433.1144 Q74.9297,434.181 76.2744,434.181 Q76.9053,434.181 77.4988,433.9112 Q78.0923,433.6415 78.7231,433.0604 Z " fill="#000000"/><text fill="#000000" font-family="sans-serif" font-size="14" lengthAdjust="spacing" textLength="46" x="96.75" y="434.931">Report</text><line style="stroke:#181818;stroke-width:0.5;" x1="8" x2="199" y1="445.64" y2="445.64"/><ellipse cx="18" cy="459.3841" fill="none" rx="3" ry="3" style="stroke:#038048;stroke-width:1.0;"/><text fill="#000000" font-family="sans-serif" font-size="14" lengthAdjust="spacing" textLength="167" x="27" y="463.1752">reportId: String {unique}</text><ellipse cx="18" cy="475.8724" fill="none" rx="3" ry="3" style="stroke:#038048;stroke-width:1.0;"/><text fill="#000000" font-family="sans-serif" font-size="14" lengthAdjust="spacing" textLength="113" x="27" y="479.6634">reportDate: Date</text><ellipse cx="18" cy="492.3607" fill="none" rx="3" ry="3" style="stroke:#038048;stroke-width:1.0;"/><text fill="#000000" font-family="sans-serif" font-size="14" lengthAdjust="spacing" textLength="90" x="27" y="496.1517">status: String</text><line style="stroke:#181818;stroke-width:0.5;" x1="8" x2="199" y1="503.1048" y2="503.1048"/></g><!--class MapView--><g id="elem_MapView"><rect codeLine="31" fill="#F1F1F1" height="48" id="MapView" rx="2.5" ry="2.5" style="stroke:#181818;stroke-width:0.5;" width="93" x="594" y="48.22"/><ellipse cx="609" cy="64.22" fill="#ADD1B2" rx="11" ry="11" style="stroke:#181818;stroke-width:1.0;"/><path d="M611.4731,70.3631 Q610.8921,70.6619 610.2529,70.8113 Q609.6138,70.9607 608.9082,70.9607 Q606.4014,70.9607 605.0815,69.3089 Q603.7617,67.657 603.7617,64.5359 Q603.7617,61.4065 605.0815,59.7547 Q606.4014,58.1028 608.9082,58.1028 Q609.6138,58.1028 610.2612,58.2522 Q610.9087,58.4016 611.4731,58.7005 L611.4731,61.4231 Q610.8423,60.8421 610.2488,60.5723 Q609.6553,60.3025 609.0244,60.3025 Q607.6797,60.3025 606.9949,61.3692 Q606.3101,62.4358 606.3101,64.5359 Q606.3101,66.6277 606.9949,67.6944 Q607.6797,68.761 609.0244,68.761 Q609.6553,68.761 610.2488,68.4912 Q610.8423,68.2215 611.4731,67.6404 Z " fill="#000000"/><text fill="#000000" font-family="sans-serif" font-size="14" lengthAdjust="spacing" textLength="61" x="623" y="69.511">MapView</text><line style="stroke:#181818;stroke-width:0.5;" x1="595" x2="686" y1="80.22" y2="80.22"/><line style="stroke:#181818;stroke-width:0.5;" x1="595" x2="686" y1="88.22" y2="88.22"/></g><!--class Search--><g id="elem_Search"><rect codeLine="34" fill="#F1F1F1" height="48" id="Search" rx="2.5" ry="2.5" style="stroke:#181818;stroke-width:0.5;" width="78" x="857.5" y="48.22"/><ellipse cx="872.5" cy="64.22" fill="#ADD1B2" rx="11" ry="11" style="stroke:#181818;stroke-width:1.0;"/><path d="M874.9731,70.3631 Q874.3921,70.6619 873.7529,70.8113 Q873.1138,70.9607 872.4082,70.9607 Q869.9014,70.9607 868.5815,69.3089 Q867.2617,67.657 867.2617,64.5359 Q867.2617,61.4065 868.5815,59.7547 Q869.9014,58.1028 872.4082,58.1028 Q873.1138,58.1028 873.7612,58.2522 Q874.4087,58.4016 874.9731,58.7005 L874.9731,61.4231 Q874.3423,60.8421 873.7488,60.5723 Q873.1553,60.3025 872.5244,60.3025 Q871.1797,60.3025 870.4949,61.3692 Q869.8101,62.4358 869.8101,64.5359 Q869.8101,66.6277 870.4949,67.6944 Q871.1797,68.761 872.5244,68.761 Q873.1553,68.761 873.7488,68.4912 Q874.3423,68.2215 874.9731,67.6404 Z " fill="#000000"/><text fill="#000000" font-family="sans-serif" font-size="14" lengthAdjust="spacing" textLength="46" x="886.5" y="69.511">Search</text><line style="stroke:#181818;stroke-width:0.5;" x1="858.5" x2="934.5" y1="80.22" y2="80.22"/><line style="stroke:#181818;stroke-width:0.5;" x1="858.5" x2="934.5" y1="88.22" y2="88.22"/></g><!--class AccountManagement--><g id="elem_AccountManagement"><rect codeLine="37" fill="#F1F1F1" height="48" id="AccountManagement" rx="2.5" ry="2.5" style="stroke:#181818;stroke-width:0.5;" width="177" x="151" y="247.42"/><ellipse cx="166" cy="263.42" fill="#ADD1B2" rx="11" ry="11" style="stroke:#181818;stroke-width:1.0;"/><path d="M168.4731,269.5631 Q167.8921,269.8619 167.2529,270.0113 Q166.6138,270.1607 165.9082,270.1607 Q163.4014,270.1607 162.0815,268.5089 Q160.7617,266.857 160.7617,263.7359 Q160.7617,260.6065 162.0815,258.9547 Q163.4014,257.3028 165.9082,257.3028 Q166.6138,257.3028 167.2612,257.4522 Q167.9087,257.6016 168.4731,257.9005 L168.4731,260.6231 Q167.8423,260.0421 167.2488,259.7723 Q166.6553,259.5025 166.0244,259.5025 Q164.6797,259.5025 163.9949,260.5692 Q163.3101,261.6358 163.3101,263.7359 Q163.3101,265.8277 163.9949,266.8944 Q164.6797,267.961 166.0244,267.961 Q166.6553,267.961 167.2488,267.6912 Q167.8423,267.4215 168.4731,266.8404 Z " fill="#000000"/><text fill="#000000" font-family="sans-serif" font-size="14" lengthAdjust="spacing" textLength="145" x="180" y="268.711">AccountManagement</text><line style="stroke:#181818;stroke-width:0.5;" x1="152" x2="327" y1="279.42" y2="279.42"/><line style="stroke:#181818;stroke-width:0.5;" x1="152" x2="327" y1="287.42" y2="287.42"/></g><g id="elem_GMN18"><path d="M364,44.26 L364,68.22 L329.69,72.22 L364,76.22 L364,100.1916 A0,0 0 0 0 364,100.1916 L559,100.1916 A0,0 0 0 0 559,100.1916 L559,54.26 L549,44.26 L364,44.26 A0,0 0 0 0 364,44.26 " fill="#FEFFDD" style="stroke:#181818;stroke-width:0.5;"/><path d="M549,44.26 L549,54.26 L559,54.26 L549,44.26 " fill="#FEFFDD" style="stroke:#181818;stroke-width:0.5;"/><text fill="#000000" font-family="sans-serif" font-size="13" lengthAdjust="spacing" textLength="170" x="370" y="61.8284">The user must be validated</text><text fill="#000000" font-family="sans-serif" font-size="13" lengthAdjust="spacing" textLength="139" x="370" y="77.1389">before they can report</text><text fill="#000000" font-family="sans-serif" font-size="13" lengthAdjust="spacing" textLength="126" x="370" y="92.4495">accessibility issues.</text></g><g id="elem_GMN21"><path d="M713.5,235.8 L713.5,267.42 L678.73,271.42 L713.5,275.42 L713.5,307.0422 A0,0 0 0 0 713.5,307.0422 L899.5,307.0422 A0,0 0 0 0 899.5,307.0422 L899.5,245.8 L889.5,235.8 L713.5,235.8 A0,0 0 0 0 713.5,235.8 " fill="#FEFFDD" style="stroke:#181818;stroke-width:0.5;"/><path d="M889.5,235.8 L889.5,245.8 L899.5,245.8 L889.5,235.8 " fill="#FEFFDD" style="stroke:#181818;stroke-width:0.5;"/><text fill="#000000" font-family="sans-serif" font-size="13" lengthAdjust="spacing" textLength="161" x="719.5" y="253.3684">A place can have multiple</text><text fill="#000000" font-family="sans-serif" font-size="13" lengthAdjust="spacing" textLength="151" x="719.5" y="268.6789">accessibility issues, but</text><text fill="#000000" font-family="sans-serif" font-size="13" lengthAdjust="spacing" textLength="149" x="719.5" y="283.9895">each issue must be tied</text><text fill="#000000" font-family="sans-serif" font-size="13" lengthAdjust="spacing" textLength="118" x="719.5" y="299.3">to a specific place.</text></g><!--link User to Report--><g id="link_User_Report"><path codeLine="40" d="M149.12,124.05 C117.2,147.13 84.92,177.59 67.5,214.44 C37.13,278.68 60.45,361.95 81.13,413.51 " fill="none" id="User-Report" style="stroke:#181818;stroke-width:1.0;"/><polygon fill="#000000" points="71.3567,276.4428,76.286,268.3094,70.5639,266.9653,71.3567,276.4428" style="stroke:#000000;stroke-width:1.0;"/><text fill="#000000" font-family="sans-serif" font-size="13" lengthAdjust="spacing" textLength="51" x="81.5" y="276.4884">submits</text><text fill="#000000" font-family="sans-serif" font-size="13" lengthAdjust="spacing" textLength="8" x="133.5991" y="125.1632">1</text><text fill="#000000" font-family="sans-serif" font-size="13" lengthAdjust="spacing" textLength="6" x="71.4038" y="402.8229">*</text></g><!--link User to AccessibilityIssue--><g id="link_User_AccessibilityIssue"><path codeLine="41" d="M295.89,137.82 C303.73,147.56 311.49,157.63 318.5,167.44 C367.03,235.42 360.13,265.86 415.5,328.4 C440.46,356.59 472.03,383.14 501.16,405 " fill="none" id="User-AccessibilityIssue" style="stroke:#181818;stroke-width:1.0;"/><polygon fill="#000000" points="423.5462,275.5402,420.3661,266.5771,415.705,270.1581,423.5462,275.5402" style="stroke:#000000;stroke-width:1.0;"/><text fill="#000000" font-family="sans-serif" font-size="13" lengthAdjust="spacing" textLength="45" x="429.5" y="276.4884">reports</text><text fill="#000000" font-family="sans-serif" font-size="13" lengthAdjust="spacing" textLength="8" x="293.2927" y="157.9427">1</text><text fill="#000000" font-family="sans-serif" font-size="13" lengthAdjust="spacing" textLength="6" x="484.5154" y="394.6805">*</text></g><!--link User to Place--><g id="link_User_Place"><path codeLine="42" d="M329.98,128.95 C335.52,131.92 341.05,134.77 346.5,137.44 C379.47,153.62 390.74,150.85 423.5,167.44 C450.41,181.07 478.53,197.93 503.66,214.04 " fill="none" id="User-Place" style="stroke:#181818;stroke-width:1.0;"/><polygon fill="#000000" points="460.6501,178.2951,453.8205,171.6764,451.2344,176.9548,460.6501,178.2951" style="stroke:#000000;stroke-width:1.0;"/><text fill="#000000" font-family="sans-serif" font-size="13" lengthAdjust="spacing" textLength="37" x="465.16" y="181.0084">filters</text><text fill="#000000" font-family="sans-serif" font-size="13" lengthAdjust="spacing" textLength="8" x="337.5089" y="130.4537">1</text><text fill="#000000" font-family="sans-serif" font-size="13" lengthAdjust="spacing" textLength="6" x="487.3201" y="203.7205">*</text></g><!--link User to AccountManagement--><g id="link_User_AccountManagement"><path codeLine="43" d="M239.5,137.79 C239.5,175.31 239.5,220.32 239.5,247.08 " fill="none" id="User-AccountManagement" style="stroke:#181818;stroke-width:1.0;"/><polygon fill="#000000" points="244.5,181.0953,247.4389,172.0502,241.5611,172.0502,244.5,181.0953" style="stroke:#000000;stroke-width:1.0;"/><text fill="#000000" font-family="sans-serif" font-size="13" lengthAdjust="spacing" textLength="56" x="253.5" y="181.0084">manages</text><text fill="#000000" font-family="sans-serif" font-size="13" lengthAdjust="spacing" textLength="8" x="231.0875" y="157.9096">1</text><text fill="#000000" font-family="sans-serif" font-size="13" lengthAdjust="spacing" textLength="8" x="230.475" y="236.5291">1</text></g><!--link Place to AccessibilityIssue--><g id="link_Place_AccessibilityIssue"><path codeLine="45" d="M585.5,328.86 C585.5,352.89 585.5,380.86 585.5,404.9 " fill="none" id="Place-AccessibilityIssue" style="stroke:#181818;stroke-width:1.0;"/><polygon fill="#000000" points="590.5,372.0553,593.4389,363.0102,587.5611,363.0102,590.5,372.0553" style="stroke:#000000;stroke-width:1.0;"/><text fill="#000000" font-family="sans-serif" font-size="13" lengthAdjust="spacing" textLength="22" x="599.5" y="371.9684">has</text><text fill="#000000" font-family="sans-serif" font-size="13" lengthAdjust="spacing" textLength="8" x="577.0375" y="348.9554">1</text><text fill="#000000" font-family="sans-serif" font-size="13" lengthAdjust="spacing" textLength="6" x="579.1344" y="394.5683">*</text></g><!--link Place to Report--><g id="link_Place_Report"><path codeLine="46" d="M492.16,316.89 C483.2,320.88 474.2,324.78 465.5,328.4 C376.79,365.3 273.79,402.62 200.39,428.28 " fill="none" id="Place-Report" style="stroke:#181818;stroke-width:1.0;"/><polygon fill="#000000" points="387.3988,368.8386,396.8973,368.3582,394.8008,362.8669,387.3988,368.8386" style="stroke:#000000;stroke-width:1.0;"/><text fill="#000000" font-family="sans-serif" font-size="13" lengthAdjust="spacing" textLength="97" x="401.07" y="371.9684">is referenced in</text><text fill="#000000" font-family="sans-serif" font-size="13" lengthAdjust="spacing" textLength="8" x="476.4032" y="317.4967">1</text><text fill="#000000" font-family="sans-serif" font-size="13" lengthAdjust="spacing" textLength="6" x="208.0378" y="422.6758">*</text></g><!--link MapView to Place--><g id="link_MapView_Place"><path codeLine="48" d="M633.97,96.62 C625.95,125.39 612.06,175.19 601.2,214.13 " fill="none" id="MapView-Place" style="stroke:#181818;stroke-width:1.0;"/><polygon fill="#000000" points="616.6569,180.9115,621.9175,172.9883,616.2557,171.4094,616.6569,180.9115" style="stroke:#000000;stroke-width:1.0;"/><text fill="#000000" font-family="sans-serif" font-size="13" lengthAdjust="spacing" textLength="52" x="627" y="181.0084">displays</text><text fill="#000000" font-family="sans-serif" font-size="13" lengthAdjust="spacing" textLength="8" x="623.5349" y="116.6011">1</text><text fill="#000000" font-family="sans-serif" font-size="13" lengthAdjust="spacing" textLength="6" x="596.7478" y="203.8214">*</text></g><!--link Search to Place--><g id="link_Search_Place"><path codeLine="49" d="M859.6,96.62 C814.23,125.39 735.69,175.19 674.28,214.13 " fill="none" id="Search-Place" style="stroke:#181818;stroke-width:1.0;"/><polygon fill="#000000" points="741.7774,178.7728,750.99,176.4111,747.8424,171.4471,741.7774,178.7728" style="stroke:#000000;stroke-width:1.0;"/><text fill="#000000" font-family="sans-serif" font-size="13" lengthAdjust="spacing" textLength="32" x="755" y="181.0084">finds</text><text fill="#000000" font-family="sans-serif" font-size="13" lengthAdjust="spacing" textLength="8" x="842.1419" y="116.6011">1</text><text fill="#000000" font-family="sans-serif" font-size="13" lengthAdjust="spacing" textLength="6" x="678.7344" y="203.8214">*</text></g><!--link Search to AccessibilityIssue--><g id="link_Search_AccessibilityIssue"><path codeLine="50" d="M907.16,96.45 C927.45,144.43 965.4,256.05 916.5,328.4 C863.61,406.64 756.28,438.85 678.13,452.11 " fill="none" id="Search-AccessibilityIssue" style="stroke:#181818;stroke-width:1.0;"/><polygon fill="#000000" points="942.7129,275.7791,950.081,269.7655,945.1391,266.5832,942.7129,275.7791" style="stroke:#000000;stroke-width:1.0;"/><text fill="#000000" font-family="sans-serif" font-size="13" lengthAdjust="spacing" textLength="32" x="954.42" y="276.4884">finds</text><text fill="#000000" font-family="sans-serif" font-size="13" lengthAdjust="spacing" textLength="8" x="900.7834" y="116.7904">1</text><text fill="#000000" font-family="sans-serif" font-size="13" lengthAdjust="spacing" textLength="6" x="686.0494" y="448.2199">*</text></g><!--SRC=[bLDDQzqm4BphLom-faqXLnyAARta40X9s_jQNZylo98hhLvuXFptwYDstgiTIdqmrkmmCxlMQeCXmCz07buKfETJJDztVGjFujaUu2LQ_XtfjHOjJhIKAa8Jihc4vYJvx7n_YHxHS8z22Vxcd26qwbKfNVmV36fQ0ipvy1y9ZDCexEmbAgVvdRSQtMfD8N37XkLq5q9SNJaVFdJjAMZFyzOcq95yqhf4FStEfrQ_ftvRoE_t28-bjjXMveU-jNmcKqq59OPjT_Su_s9wJjehz4JezNYEf16uQEKUBHve8YkrMAv0SzF0zJKqLyqIiuKGkuabmDSDPMUOBTJ4U_JwariOs0Zv3UEcsOdMmbGEcQsgmBy2Z9Z96-xQ3uUKSI1FLbCFRBFoChYTj3s7T25FMVDjbhijsNwViHjneIlhXC3pOHHmGzb2zMCao2i8Kmm27S6wDw0w6fmda95EeD6-pHeKdfj0kSdXYoBRGpRuswQ4LhTGzgpeZ7Yav6U4PqFxSf-XYyc9CBLNa3MVS8uc3X32J9e7rbNwBC4V]--></g></svg>