<svg version="1.2" xmlns="http://www.w3.org/2000/svg" viewBox="0 0 2048 1080" width="2048" height="1080">
	<title>New Project</title>
	<style>
		.s0 { fill: #000000 } 
		.s1 { fill: #006cff } 
	</style>
	<path id="inclui" class="s0" aria-label="inclui"  d="m795.7 499.2v127.8h-34.3v-127.8zm-36.3-33.1q0-7.7 5.1-12.6 5.2-5 14.1-5 8.7 0 13.9 5 5.2 4.9 5.2 12.6 0 7.8-5.3 12.8-5.2 4.9-13.8 4.9-8.6 0-14-4.9-5.2-5-5.2-12.8zm57.7 33.1h32.1l1.1 14.8q13.7-17.2 36.7-17.2 20.3 0 30.2 12 10 11.9 10.2 35.6v82.6h-34.1v-81.7q0-10.9-4.8-15.8-4.7-4.9-15.7-4.9-14.4 0-21.6 12.3v90.1h-34.1z"/>
	<path id="inclui" class="s1" aria-label="inclui"  d="m1000.3 601.8q9.5 0 15.4-5.2 5.9-5.2 6.1-13.8h32q-0.1 13-7 23.9-7 10.7-19.2 16.8-12 5.9-26.7 5.9-27.4 0-43.2-17.4-15.8-17.5-15.8-48.2v-2.2q0-29.6 15.7-47.2 15.7-17.6 43.1-17.6 24 0 38.4 13.7 14.5 13.6 14.7 36.3h-32q-0.2-9.9-6.1-16.1-5.9-6.2-15.6-6.2-11.9 0-18.1 8.7-6 8.6-6 28.1v3.6q0 19.7 6 28.3 6 8.6 18.3 8.6zm103-156.2v181.4h-34.2v-181.4zm99.5 181.4l-0.9-13q-12.7 15.4-35 15.4-20.6 0-31.4-11.9-10.8-11.8-11-34.6v-83.7h34.1v82.6q0 19.9 18.2 19.9 17.4 0 23.9-12v-90.5h34.2v127.8zm87.9-127.8v127.8h-34.3v-127.8zm-36.2-33.1q0-7.7 5.1-12.6 5.2-5 14-5 8.8 0 14 5 5.2 4.9 5.2 12.6 0 7.8-5.4 12.8-5.2 4.9-13.8 4.9-8.6 0-13.9-4.9-5.2-5-5.2-12.8z"/>
</svg>