<svg width="50" height="50" viewBox="0 0 50 50" fill="none" xmlns="http://www.w3.org/2000/svg">
<circle cx="25" cy="25" r="24.5" fill="#D72B5E" stroke="#D5D5D5"/>
<path d="M23.4375 17.6522C23.4375 19.6661 21.7694 21.3043 19.7188 21.3043C17.6681 21.3043 16 19.6661 16 17.6522C16 15.6383 17.6681 14 19.7188 14C21.7694 14 23.4375 15.6383 23.4375 17.6522ZM29.1591 21.3043C31.2097 21.3043 32.8778 19.6661 32.8778 17.6522C32.8778 15.6383 31.2097 14 29.1591 14C27.1084 14 25.4403 15.6383 25.4403 17.6522C25.4403 19.6661 27.1084 21.3043 29.1591 21.3043ZM19.7188 30.6957C17.6681 30.6957 16 32.3339 16 34.3478C16 36.3617 17.6681 38 19.7188 38C21.7694 38 23.4375 36.3617 23.4375 34.3478C23.4375 32.3339 21.7694 30.6957 19.7188 30.6957ZM33 26C33 28.0139 31.3319 29.6522 29.2812 29.6522C27.2306 29.6522 25.5625 28.0139 25.5625 26C25.5625 23.9861 27.2306 22.3478 29.2812 22.3478C31.3319 22.3478 33 23.9861 33 26ZM30.875 26C30.875 25.137 30.1599 24.4348 29.2812 24.4348C28.4026 24.4348 27.6875 25.137 27.6875 26C27.6875 26.863 28.4026 27.5652 29.2812 27.5652C30.1599 27.5652 30.875 26.863 30.875 26ZM23.4375 26C23.4375 28.0139 21.7694 29.6522 19.7188 29.6522C17.6681 29.6522 16 28.0139 16 26C16 23.9861 17.6681 22.3478 19.7188 22.3478C21.7694 22.3478 23.4375 23.9861 23.4375 26ZM21.3125 26C21.3125 25.137 20.5974 24.4348 19.7188 24.4348C18.8401 24.4348 18.125 25.137 18.125 26C18.125 26.863 18.8401 27.5652 19.7188 27.5652C20.5974 27.5652 21.3125 26.863 21.3125 26ZM33 34.3478C33 36.3617 31.3319 38 29.2812 38C27.2306 38 25.5625 36.3617 25.5625 34.3478C25.5625 32.3339 27.2306 30.6957 29.2812 30.6957C31.3319 30.6957 33 32.3339 33 34.3478ZM30.875 34.3478C30.875 33.4849 30.1599 32.7826 29.2812 32.7826C28.4026 32.7826 27.6875 33.4849 27.6875 34.3478C27.6875 35.2108 28.4026 35.913 29.2812 35.913C30.1599 35.913 30.875 35.2108 30.875 34.3478Z" fill="white"/>
</svg>
