<svg width="50" height="50" viewBox="0 0 50 50" fill="none" xmlns="http://www.w3.org/2000/svg">
<g clip-path="url(#clip0_266_119)">
<circle cx="25" cy="25" r="24.5" fill="#0A1128" stroke="#2F2F2F"/>
<path d="M23.4375 16.6522C23.4375 18.6661 21.7694 20.3043 19.7188 20.3043C17.6681 20.3043 16 18.6661 16 16.6522C16 14.6383 17.6681 13 19.7188 13C21.7694 13 23.4375 14.6383 23.4375 16.6522ZM29.1591 20.3043C31.2097 20.3043 32.8778 18.6661 32.8778 16.6522C32.8778 14.6383 31.2097 13 29.1591 13C27.1084 13 25.4403 14.6383 25.4403 16.6522C25.4403 18.6661 27.1084 20.3043 29.1591 20.3043ZM19.7188 29.6957C17.6681 29.6957 16 31.3339 16 33.3478C16 35.3617 17.6681 37 19.7188 37C21.7694 37 23.4375 35.3617 23.4375 33.3478C23.4375 31.3339 21.7694 29.6957 19.7188 29.6957ZM33 25C33 27.0139 31.3319 28.6522 29.2812 28.6522C27.2306 28.6522 25.5625 27.0139 25.5625 25C25.5625 22.9861 27.2306 21.3478 29.2812 21.3478C31.3319 21.3478 33 22.9861 33 25ZM30.875 25C30.875 24.137 30.1599 23.4348 29.2812 23.4348C28.4026 23.4348 27.6875 24.137 27.6875 25C27.6875 25.863 28.4026 26.5652 29.2812 26.5652C30.1599 26.5652 30.875 25.863 30.875 25ZM23.4375 25C23.4375 27.0139 21.7694 28.6522 19.7188 28.6522C17.6681 28.6522 16 27.0139 16 25C16 22.9861 17.6681 21.3478 19.7188 21.3478C21.7694 21.3478 23.4375 22.9861 23.4375 25ZM21.3125 25C21.3125 24.137 20.5974 23.4348 19.7188 23.4348C18.8401 23.4348 18.125 24.137 18.125 25C18.125 25.863 18.8401 26.5652 19.7188 26.5652C20.5974 26.5652 21.3125 25.863 21.3125 25ZM33 33.3478C33 35.3617 31.3319 37 29.2812 37C27.2306 37 25.5625 35.3617 25.5625 33.3478C25.5625 31.3339 27.2306 29.6957 29.2812 29.6957C31.3319 29.6957 33 31.3339 33 33.3478ZM30.875 33.3478C30.875 32.4849 30.1599 31.7826 29.2812 31.7826C28.4026 31.7826 27.6875 32.4849 27.6875 33.3478C27.6875 34.2108 28.4026 34.913 29.2812 34.913C30.1599 34.913 30.875 34.2108 30.875 33.3478Z" fill="#006CFF"/>
</g>
<defs>
<clipPath id="clip0_266_119">
<rect width="50" height="50" fill="white"/>
</clipPath>
</defs>
</svg>
