<svg width="50" height="50" viewBox="0 0 50 50" fill="none" xmlns="http://www.w3.org/2000/svg">
<g clip-path="url(#clip0_266_125)">
<circle cx="25" cy="25" r="24.5" fill="#0F1734" stroke="#242B41"/>
<path d="M32.7917 17.5H17.2083C15.4392 17.5 14 18.9392 14 20.7083V34H36V20.7083C36 18.9392 34.5608 17.5 32.7917 17.5ZM33.25 31.25H32.3333V29.4167C32.3333 28.4038 31.5129 27.5833 30.5 27.5833H27.75C26.7371 27.5833 25.9167 28.4038 25.9167 29.4167V31.25H24.0833V29.4167C24.0833 28.4038 23.2629 27.5833 22.25 27.5833H19.5C18.4871 27.5833 17.6667 28.4038 17.6667 29.4167V31.25H16.75V20.7083C16.75 20.4553 16.9563 20.25 17.2083 20.25H32.7917C33.0438 20.25 33.25 20.4553 33.25 20.7083V31.25ZM24.0833 15.6667H17.6667L20.875 12L24.0833 15.6667ZM29.125 15.6667L25.9167 12H32.3333L29.125 15.6667ZM23.1667 24.375C23.1667 25.6409 22.1409 26.6667 20.875 26.6667C19.6091 26.6667 18.5833 25.6409 18.5833 24.375C18.5833 23.1091 19.6091 22.0833 20.875 22.0833C22.1409 22.0833 23.1667 23.1091 23.1667 24.375ZM31.4167 24.375C31.4167 25.6409 30.3909 26.6667 29.125 26.6667C27.8591 26.6667 26.8333 25.6409 26.8333 24.375C26.8333 23.1091 27.8591 22.0833 29.125 22.0833C30.3909 22.0833 31.4167 23.1091 31.4167 24.375Z" fill="white"/>
</g>
<defs>
<clipPath id="clip0_266_125">
<rect width="50" height="50" fill="white"/>
</clipPath>
</defs>
</svg>
