<svg width="50" height="50" viewBox="0 0 50 50" fill="none" xmlns="http://www.w3.org/2000/svg">
<g clip-path="url(#clip0_266_121)">
<circle cx="25" cy="25" r="24.5" fill="#0A1128" stroke="#2F2F2F"/>
<path d="M32.7917 18.5H17.2083C15.4392 18.5 14 19.9392 14 21.7083V35H36V21.7083C36 19.9392 34.5608 18.5 32.7917 18.5ZM33.25 32.25H32.3333V30.4167C32.3333 29.4038 31.5129 28.5833 30.5 28.5833H27.75C26.7371 28.5833 25.9167 29.4038 25.9167 30.4167V32.25H24.0833V30.4167C24.0833 29.4038 23.2629 28.5833 22.25 28.5833H19.5C18.4871 28.5833 17.6667 29.4038 17.6667 30.4167V32.25H16.75V21.7083C16.75 21.4553 16.9563 21.25 17.2083 21.25H32.7917C33.0438 21.25 33.25 21.4553 33.25 21.7083V32.25ZM24.0833 16.6667H17.6667L20.875 13L24.0833 16.6667ZM29.125 16.6667L25.9167 13H32.3333L29.125 16.6667ZM23.1667 25.375C23.1667 26.6409 22.1409 27.6667 20.875 27.6667C19.6091 27.6667 18.5833 26.6409 18.5833 25.375C18.5833 24.1091 19.6091 23.0833 20.875 23.0833C22.1409 23.0833 23.1667 24.1091 23.1667 25.375ZM31.4167 25.375C31.4167 26.6409 30.3909 27.6667 29.125 27.6667C27.8591 27.6667 26.8333 26.6409 26.8333 25.375C26.8333 24.1091 27.8591 23.0833 29.125 23.0833C30.3909 23.0833 31.4167 24.1091 31.4167 25.375Z" fill="#006CFF"/>
</g>
<defs>
<clipPath id="clip0_266_121">
<rect width="50" height="50" fill="white"/>
</clipPath>
</defs>
</svg>
