<svg width="148" height="50" viewBox="0 0 148 50" fill="none" xmlns="http://www.w3.org/2000/svg">
<circle cx="123" cy="25" r="24.5" fill="#F2F2F2" stroke="#D5D5D5"/>
<path d="M117.125 28.2273C116.576 28.2273 116.105 28.0355 115.712 27.652C115.323 27.2637 115.132 26.7926 115.136 26.2386C115.132 25.6989 115.323 25.2372 115.712 24.8537C116.105 24.4702 116.576 24.2784 117.125 24.2784C117.646 24.2784 118.105 24.4702 118.503 24.8537C118.905 25.2372 119.109 25.6989 119.114 26.2386C119.109 26.608 119.012 26.9441 118.822 27.2472C118.638 27.5455 118.396 27.7846 118.098 27.9645C117.8 28.1397 117.475 28.2273 117.125 28.2273ZM123.375 28.2273C122.826 28.2273 122.355 28.0355 121.962 27.652C121.573 27.2637 121.382 26.7926 121.386 26.2386C121.382 25.6989 121.573 25.2372 121.962 24.8537C122.355 24.4702 122.826 24.2784 123.375 24.2784C123.896 24.2784 124.355 24.4702 124.753 24.8537C125.155 25.2372 125.359 25.6989 125.364 26.2386C125.359 26.608 125.262 26.9441 125.072 27.2472C124.888 27.5455 124.646 27.7846 124.348 27.9645C124.05 28.1397 123.725 28.2273 123.375 28.2273ZM129.625 28.2273C129.076 28.2273 128.605 28.0355 128.212 27.652C127.823 27.2637 127.632 26.7926 127.636 26.2386C127.632 25.6989 127.823 25.2372 128.212 24.8537C128.605 24.4702 129.076 24.2784 129.625 24.2784C130.146 24.2784 130.605 24.4702 131.003 24.8537C131.405 25.2372 131.609 25.6989 131.614 26.2386C131.609 26.608 131.512 26.9441 131.322 27.2472C131.138 27.5455 130.896 27.7846 130.598 27.9645C130.3 28.1397 129.975 28.2273 129.625 28.2273Z" fill="#B2B2B2"/>
<circle cx="91" cy="25" r="24.5" fill="#F2F2F2" stroke="#D5D5D5"/>
<g clip-path="url(#clip0_131_55)">
<path d="M87.9167 14.9167C87.9167 13.3055 89.2222 12 90.8333 12C92.4445 12 93.75 13.3055 93.75 14.9167C93.75 16.5278 92.4445 17.8333 90.8333 17.8333C89.2222 17.8333 87.9167 16.5278 87.9167 14.9167ZM95.2958 23.1265L95.1628 22.066C94.9447 20.3183 93.4513 19 91.6897 19H89.9758C88.2142 19 86.7208 20.3183 86.5027 22.066L86.2425 24.1508L91.9382 27.0173L90.894 29.1045L85.9357 26.6067L84.8448 35.3345H87.3333V40.0012H89.6667V35.3345H92V40.0012H94.3333V35.3345H97.4985L97.7692 34.5482C97.8952 34.183 99 30.9175 99 28.9178C99 26.4142 97.5393 24.1718 95.2958 23.1277V23.1265Z" fill="#006CFF"/>
</g>
<circle cx="58" cy="25" r="24.5" fill="#F2F2F2" stroke="#D5D5D5"/>
<path d="M57.4375 17.6522C57.4375 19.6661 55.7694 21.3043 53.7188 21.3043C51.6681 21.3043 50 19.6661 50 17.6522C50 15.6383 51.6681 14 53.7188 14C55.7694 14 57.4375 15.6383 57.4375 17.6522ZM63.1591 21.3043C65.2097 21.3043 66.8778 19.6661 66.8778 17.6522C66.8778 15.6383 65.2097 14 63.1591 14C61.1084 14 59.4403 15.6383 59.4403 17.6522C59.4403 19.6661 61.1084 21.3043 63.1591 21.3043ZM53.7188 30.6957C51.6681 30.6957 50 32.3339 50 34.3478C50 36.3617 51.6681 38 53.7188 38C55.7694 38 57.4375 36.3617 57.4375 34.3478C57.4375 32.3339 55.7694 30.6957 53.7188 30.6957ZM67 26C67 28.0139 65.3319 29.6522 63.2812 29.6522C61.2306 29.6522 59.5625 28.0139 59.5625 26C59.5625 23.9861 61.2306 22.3478 63.2812 22.3478C65.3319 22.3478 67 23.9861 67 26ZM64.875 26C64.875 25.137 64.1599 24.4348 63.2812 24.4348C62.4026 24.4348 61.6875 25.137 61.6875 26C61.6875 26.863 62.4026 27.5652 63.2812 27.5652C64.1599 27.5652 64.875 26.863 64.875 26ZM57.4375 26C57.4375 28.0139 55.7694 29.6522 53.7188 29.6522C51.6681 29.6522 50 28.0139 50 26C50 23.9861 51.6681 22.3478 53.7188 22.3478C55.7694 22.3478 57.4375 23.9861 57.4375 26ZM55.3125 26C55.3125 25.137 54.5974 24.4348 53.7188 24.4348C52.8401 24.4348 52.125 25.137 52.125 26C52.125 26.863 52.8401 27.5652 53.7188 27.5652C54.5974 27.5652 55.3125 26.863 55.3125 26ZM67 34.3478C67 36.3617 65.3319 38 63.2812 38C61.2306 38 59.5625 36.3617 59.5625 34.3478C59.5625 32.3339 61.2306 30.6957 63.2812 30.6957C65.3319 30.6957 67 32.3339 67 34.3478ZM64.875 34.3478C64.875 33.4849 64.1599 32.7826 63.2812 32.7826C62.4026 32.7826 61.6875 33.4849 61.6875 34.3478C61.6875 35.2108 62.4026 35.913 63.2812 35.913C64.1599 35.913 64.875 35.2108 64.875 34.3478Z" fill="#0672FF"/>
<circle cx="25" cy="25" r="24.5" fill="#F2F2F2" stroke="#D5D5D5"/>
<path d="M21.2995 14.5C21.2995 13.8078 21.5051 13.1311 21.8904 12.5555C22.2757 11.9799 22.8233 11.5313 23.464 11.2664C24.1047 11.0015 24.8097 10.9322 25.4899 11.0673C26.1701 11.2023 26.7948 11.5356 27.2852 12.0251C27.7756 12.5146 28.1095 13.1383 28.2448 13.8172C28.3801 14.4961 28.3107 15.1999 28.0453 15.8394C27.7799 16.4789 27.3305 17.0256 26.7539 17.4101C26.1772 17.7947 25.4993 18 24.8058 18C23.8759 18 22.984 17.6313 22.3265 16.9749C21.6689 16.3185 21.2995 15.4283 21.2995 14.5ZM38.8312 35.5H37.3363L35.7924 30.8928C35.5599 30.197 35.1143 29.5916 34.5185 29.1622C33.9227 28.7329 33.2067 28.5012 32.4719 28.5H28.3122C27.6922 28.5 27.0977 28.2542 26.6593 27.8166C26.2209 27.379 25.9746 26.7855 25.9746 26.1667H32.9873C33.2973 26.1667 33.5946 26.0438 33.8138 25.825C34.033 25.6062 34.1561 25.3094 34.1561 25C34.1561 24.6906 34.033 24.3938 33.8138 24.175C33.5946 23.9563 33.2973 23.8333 32.9873 23.8333H25.9746V20.3333C25.9746 20.0239 25.8515 19.7272 25.6323 19.5084C25.4131 19.2896 25.1158 19.1667 24.8058 19.1667C24.4959 19.1667 24.1986 19.2896 23.9794 19.5084C23.7602 19.7272 23.6371 20.0239 23.6371 20.3333V26.1667C23.6371 27.4043 24.1296 28.5913 25.0064 29.4665C25.8831 30.3417 27.0723 30.8333 28.3122 30.8333H32.4719C32.7173 30.8333 32.9565 30.9103 33.1556 31.0536C33.3546 31.1968 33.5035 31.3989 33.5811 31.6313L35.3857 37.0353C35.4631 37.2676 35.6118 37.4696 35.8107 37.6128C36.0095 37.756 36.2485 37.8331 36.4937 37.8333H38.8312C39.1412 37.8333 39.4385 37.7104 39.6577 37.4916C39.8769 37.2728 40 36.9761 40 36.6667C40 36.3572 39.8769 36.0605 39.6577 35.8417C39.4385 35.6229 39.1412 35.5 38.8312 35.5ZM28.0621 33.1527C26.2457 33.0959 24.523 32.3343 23.2602 31.0298C21.9974 29.7253 21.294 27.9807 21.2995 26.1667V21.5828C21.2995 21.4156 21.2635 21.2503 21.194 21.0982C21.1244 20.9461 21.0229 20.8107 20.8963 20.7011C20.7697 20.5916 20.621 20.5105 20.4603 20.4634C20.2996 20.4162 20.1306 20.4041 19.9647 20.4278C17.6482 20.7756 15.5466 21.9781 14.0753 23.7979C12.6041 25.6176 11.8702 27.922 12.0189 30.2557C12.1675 32.5893 13.1878 34.7825 14.878 36.4016C16.5683 38.0206 18.8055 38.9479 21.1476 39H21.2995C22.8098 39.0004 24.2978 38.6353 25.6358 37.9359C26.9738 37.2365 28.1219 36.2237 28.9819 34.9843C29.1017 34.8122 29.1729 34.6111 29.1879 34.402C29.2029 34.193 29.1612 33.9837 29.0672 33.7963C28.9732 33.6089 28.8304 33.4502 28.6537 33.337C28.477 33.2237 28.2719 33.16 28.0621 33.1527Z" fill="#006CFF"/>
<defs>
<clipPath id="clip0_131_55">
<rect width="28" height="28" fill="white" transform="translate(78 12)"/>
</clipPath>
</defs>
</svg>
