<svg width="50" height="50" viewBox="0 0 50 50" fill="none" xmlns="http://www.w3.org/2000/svg">
<g clip-path="url(#clip0_266_129)">
<circle cx="25" cy="25" r="24.5" fill="#0F1734" stroke="#242B41"/>
<path d="M19.125 28.2273C18.5758 28.2273 18.1046 28.0355 17.7116 27.652C17.3234 27.2637 17.1316 26.7926 17.1364 26.2386C17.1316 25.6989 17.3234 25.2372 17.7116 24.8537C18.1046 24.4702 18.5758 24.2784 19.125 24.2784C19.6458 24.2784 20.1051 24.4702 20.5028 24.8537C20.9053 25.2372 21.1089 25.6989 21.1136 26.2386C21.1089 26.608 21.0118 26.9441 20.8224 27.2472C20.6378 27.5455 20.3963 27.7846 20.098 27.9645C19.7997 28.1397 19.4754 28.2273 19.125 28.2273ZM25.375 28.2273C24.8258 28.2273 24.3546 28.0355 23.9616 27.652C23.5734 27.2637 23.3816 26.7926 23.3864 26.2386C23.3816 25.6989 23.5734 25.2372 23.9616 24.8537C24.3546 24.4702 24.8258 24.2784 25.375 24.2784C25.8958 24.2784 26.3551 24.4702 26.7528 24.8537C27.1553 25.2372 27.3589 25.6989 27.3636 26.2386C27.3589 26.608 27.2618 26.9441 27.0724 27.2472C26.8878 27.5455 26.6463 27.7846 26.348 27.9645C26.0497 28.1397 25.7254 28.2273 25.375 28.2273ZM31.625 28.2273C31.0758 28.2273 30.6046 28.0355 30.2116 27.652C29.8234 27.2637 29.6316 26.7926 29.6364 26.2386C29.6316 25.6989 29.8234 25.2372 30.2116 24.8537C30.6046 24.4702 31.0758 24.2784 31.625 24.2784C32.1458 24.2784 32.6051 24.4702 33.0028 24.8537C33.4053 25.2372 33.6089 25.6989 33.6136 26.2386C33.6089 26.608 33.5118 26.9441 33.3224 27.2472C33.1378 27.5455 32.8963 27.7846 32.598 27.9645C32.2997 28.1397 31.9754 28.2273 31.625 28.2273Z" fill="white"/>
</g>
<defs>
<clipPath id="clip0_266_129">
<rect width="50" height="50" fill="white"/>
</clipPath>
</defs>
</svg>
