<svg width="50" height="50" viewBox="0 0 50 50" fill="none" xmlns="http://www.w3.org/2000/svg">
<g clip-path="url(#clip0_266_127)">
<g clip-path="url(#clip1_266_127)">
<circle cx="25" cy="25" r="24.5" fill="#0F1734" stroke="#242B41"/>
<path d="M28.5 23.7492C28.5 21.4975 26.6683 19.6658 24.4167 19.6658H15.0833C12.8317 19.6658 11 21.4975 11 23.7492C11 25.372 11.959 26.765 13.3333 27.423V30.1658H12.1667C11.5227 30.1658 11 30.6873 11 31.3325C11 31.9777 11.5227 32.4992 12.1667 32.4992H13.3333V34.8325C13.3333 35.4777 13.856 35.9992 14.5 35.9992C15.144 35.9992 15.6667 35.4777 15.6667 34.8325V32.4992H23.8333V34.8325C23.8333 35.4777 24.356 35.9992 25 35.9992C25.644 35.9992 26.1667 35.4777 26.1667 34.8325V32.4992H27.3333C27.9773 32.4992 28.5 31.9777 28.5 31.3325C28.5 30.6873 27.9773 30.1658 27.3333 30.1658H26.1667V27.423C27.541 26.765 28.5 25.372 28.5 23.7492ZM15.6667 30.1658V27.8325H23.8333V30.1658H15.6667ZM38.468 19.8537C39.0362 20.9725 39.1447 22.1473 38.8145 23.314C38.2043 25.4712 36.081 26.8723 33.7745 26.6402C33.4922 26.6122 33.3732 26.6775 33.309 26.7347C33.2437 26.7942 33.1667 26.9027 33.1667 27.087V34.8337C33.1667 35.4788 32.644 36.0003 32 36.0003C31.356 36.0003 30.8333 35.4788 30.8333 34.8337V23.7492C30.8333 20.7602 28.8045 18.19 25.8983 17.504C25.3232 17.3675 24.9405 16.8227 25.007 16.2358C25.1167 15.278 25.7852 14.3645 26.9938 13.521C27.31 13.3005 27.3368 12.9132 27.3345 12.7557C27.3217 12.1233 27.4418 11.491 27.6915 10.8773C28.2375 9.5345 29.3878 8.5195 30.768 8.159C31.5917 7.94317 32.4445 7.94783 33.2682 8.16833C34.6343 8.5335 35.7718 9.54967 36.3132 10.882C36.5628 11.5015 36.6818 12.1362 36.6667 12.772C36.6632 12.9598 36.7017 13.3075 37.0097 13.5245C38.2568 14.3937 39.0012 15.8182 39.0012 17.3337C39.0012 18.0208 38.8402 18.7068 38.5228 19.3742C38.4015 19.6285 38.4108 19.7323 38.4108 19.7323C38.4143 19.751 38.4482 19.8128 38.4692 19.8548L38.468 19.8537Z" fill="white"/>
</g>
</g>
<defs>
<clipPath id="clip0_266_127">
<rect width="50" height="50" fill="white"/>
</clipPath>
<clipPath id="clip1_266_127">
<rect width="50" height="50" fill="white"/>
</clipPath>
</defs>
</svg>
