<svg width="50" height="50" viewBox="0 0 50 50" fill="none" xmlns="http://www.w3.org/2000/svg">
<g clip-path="url(#clip0_266_120)">
<circle cx="25" cy="25" r="24.5" fill="#0A1128" stroke="#2F2F2F"/>
<path d="M22.0718 13.9167C22.0718 12.3055 23.3773 11 24.9885 11C26.5997 11 27.9052 12.3055 27.9052 13.9167C27.9052 15.5278 26.5997 16.8333 24.9885 16.8333C23.3773 16.8333 22.0718 15.5278 22.0718 13.9167ZM29.451 22.1265L29.318 21.066C29.0998 19.3183 27.6065 18 25.8448 18H24.131C22.3693 18 20.876 19.3183 20.6578 21.066L20.3977 23.1508L26.0933 26.0173L25.0492 28.1045L20.0908 25.6067L19 34.3345H21.4885V39.0012H23.8218V34.3345H26.1552V39.0012H28.4885V34.3345H31.6537L31.9243 33.5482C32.0503 33.183 33.1552 29.9175 33.1552 27.9178C33.1552 25.4142 31.6945 23.1718 29.451 22.1277V22.1265Z" fill="#006CFF"/>
</g>
<defs>
<clipPath id="clip0_266_120">
<rect width="50" height="50" fill="white"/>
</clipPath>
</defs>
</svg>
