<svg width="50" height="50" viewBox="0 0 50 50" fill="none" xmlns="http://www.w3.org/2000/svg">
<g clip-path="url(#clip0_266_132)">
<circle cx="25" cy="25" r="24.5" fill="#D72B5E" stroke="#D5D5D5"/>
<path d="M21.0718 13.9167C21.0718 12.3055 22.3773 11 23.9885 11C25.5997 11 26.9052 12.3055 26.9052 13.9167C26.9052 15.5278 25.5997 16.8333 23.9885 16.8333C22.3773 16.8333 21.0718 15.5278 21.0718 13.9167ZM28.451 22.1265L28.318 21.066C28.0998 19.3183 26.6065 18 24.8448 18H23.131C21.3693 18 19.876 19.3183 19.6578 21.066L19.3977 23.1508L25.0933 26.0173L24.0492 28.1045L19.0908 25.6067L18 34.3345H20.4885V39.0012H22.8218V34.3345H25.1552V39.0012H27.4885V34.3345H30.6537L30.9243 33.5482C31.0503 33.183 32.1552 29.9175 32.1552 27.9178C32.1552 25.4142 30.6945 23.1718 28.451 22.1277V22.1265Z" fill="white"/>
</g>
<defs>
<clipPath id="clip0_266_132">
<rect width="50" height="50" fill="white"/>
</clipPath>
</defs>
</svg>
