<svg width="50" height="50" viewBox="0 0 50 50" fill="none" xmlns="http://www.w3.org/2000/svg">
<g clip-path="url(#clip0_266_124)">
<circle cx="25" cy="25" r="24.5" fill="#0F1734" stroke="#242B41"/>
<path d="M21.0718 12.9167C21.0718 11.3055 22.3773 10 23.9885 10C25.5997 10 26.9052 11.3055 26.9052 12.9167C26.9052 14.5278 25.5997 15.8333 23.9885 15.8333C22.3773 15.8333 21.0718 14.5278 21.0718 12.9167ZM28.451 21.1265L28.318 20.066C28.0998 18.3183 26.6065 17 24.8448 17H23.131C21.3693 17 19.876 18.3183 19.6578 20.066L19.3977 22.1508L25.0933 25.0173L24.0492 27.1045L19.0908 24.6067L18 33.3345H20.4885V38.0012H22.8218V33.3345H25.1552V38.0012H27.4885V33.3345H30.6537L30.9243 32.5482C31.0503 32.183 32.1552 28.9175 32.1552 26.9178C32.1552 24.4142 30.6945 22.1718 28.451 21.1277V21.1265Z" fill="white"/>
</g>
<defs>
<clipPath id="clip0_266_124">
<rect width="50" height="50" fill="white"/>
</clipPath>
</defs>
</svg>
