<svg width="50" height="50" viewBox="0 0 50 50" fill="none" xmlns="http://www.w3.org/2000/svg">
<g clip-path="url(#clip0_266_128)">
<circle cx="25" cy="25" r="24.5" fill="#0F1734" stroke="#242B41"/>
<path d="M37 22.0005V18.9095C37 17.8105 36.401 16.8025 35.437 16.2755L26.436 11.3675C25.537 10.8775 24.463 10.8775 23.563 11.3675L14.563 16.2765C13.599 16.8025 13 17.8115 13 18.9105V22.0015H16V33.0005H13V35.0005H37V33.0005H34V22.0005H37ZM25 15.5005C25.828 15.5005 26.5 16.1725 26.5 17.0005C26.5 17.8285 25.828 18.5005 25 18.5005C24.172 18.5005 23.5 17.8285 23.5 17.0005C23.5 16.1725 24.172 15.5005 25 15.5005ZM21 32.9995H18V22.0005H21V32.9995ZM27 32.9995H23V22.0005H27V32.9995ZM32 32.9995H29V22.0005H32V32.9995Z" fill="white"/>
</g>
<defs>
<clipPath id="clip0_266_128">
<rect width="50" height="50" fill="white"/>
</clipPath>
</defs>
</svg>
