<svg width="50" height="50" viewBox="0 0 50 50" fill="none" xmlns="http://www.w3.org/2000/svg">
<g clip-path="url(#clip0_266_126)">
<circle cx="25" cy="25" r="24.5" fill="#0F1734" stroke="#242B41"/>
<path d="M36.7283 36.313C36.9101 36.5064 37.0077 36.7642 36.9995 37.0296C36.9914 37.295 36.8782 37.5463 36.6848 37.7282C36.4915 37.9101 36.2339 38.0077 35.9686 37.9995C35.7033 37.9914 35.4522 37.8781 35.2704 37.6847L29.7875 31.8427C28.7516 31.8757 23.9807 32.0178 25.4756 29.7617C25.6008 29.6344 25.7582 29.5435 25.931 29.4987C26.1037 29.4539 26.2854 29.457 26.4566 29.5075C27.5745 29.8545 28.7545 29.9535 29.9145 29.7977C30.115 29.772 30.3187 29.7949 30.5084 29.8646C30.6981 29.9342 30.8683 30.0485 31.0045 30.1979L36.7283 36.313ZM27.9996 27.9948C28.6562 27.9957 29.3065 27.867 29.9132 27.616C30.52 27.365 31.0713 26.9966 31.5355 26.532L36.7063 21.3574C36.7993 21.2645 36.8731 21.1542 36.9234 21.0328C36.9738 20.9114 36.9998 20.7812 36.9999 20.6498C37 20.5183 36.9742 20.3881 36.924 20.2666C36.8738 20.1451 36.8002 20.0347 36.7073 19.9417C36.6145 19.8487 36.5042 19.7749 36.3829 19.7245C36.2615 19.6741 36.1315 19.6481 36.0001 19.648C35.8687 19.6479 35.7385 19.6737 35.6171 19.7239C35.4957 19.7742 35.3853 19.8478 35.2924 19.9407L30.1215 25.1153C29.6824 25.5509 29.1195 25.84 28.5098 25.9432C27.9001 26.0463 27.2735 25.9585 26.7156 25.6916L33.7064 18.6971C33.8019 18.6048 33.8781 18.4944 33.9305 18.3723C33.9829 18.2503 34.0105 18.119 34.0117 17.9861C34.0128 17.8533 33.9875 17.7215 33.9372 17.5986C33.887 17.4756 33.8127 17.3639 33.7188 17.27C33.6249 17.176 33.5133 17.1017 33.3904 17.0514C33.2675 17.0011 33.1358 16.9758 33.003 16.977C32.8703 16.9781 32.739 17.0057 32.617 17.0582C32.495 17.1106 32.3847 17.1868 32.2925 17.2824L25.2997 24.2769C25.033 23.7187 24.9451 23.0918 25.0482 22.4818C25.1514 21.8718 25.4403 21.3085 25.8756 20.8692L31.0495 15.6956C31.2316 15.5069 31.3324 15.2541 31.3302 14.9918C31.3279 14.7295 31.2227 14.4785 31.0373 14.293C30.8519 14.1075 30.6011 14.0023 30.3389 14C30.0767 13.9978 29.8241 14.0986 29.6355 14.2809L24.4637 19.4545C23.6504 20.2709 23.1433 21.3428 23.0276 22.4896C22.912 23.6365 23.1949 24.7881 23.8287 25.7506L13.293 36.292C13.1108 36.4807 13.01 36.7334 13.0123 36.9957C13.0146 37.258 13.1198 37.509 13.3052 37.6945C13.4906 37.88 13.7414 37.9852 14.0036 37.9875C14.2658 37.9898 14.5184 37.8889 14.707 37.7067L25.2427 27.1654C26.0605 27.7063 27.0192 27.9947 27.9996 27.9948ZM18.4518 26.9593C19.2808 27.7406 20.0458 26.7031 20.6028 26.1478C20.8332 25.9148 21.0028 25.6287 21.0968 25.3147C21.1908 25.0006 21.2062 24.6683 21.1418 24.3469C20.5248 22.6241 22.0327 20.613 20.7848 19.2273L16.3289 14.561C16.054 14.2938 15.707 14.113 15.3306 14.0409C14.9542 13.9688 14.565 14.0086 14.2109 14.1554C13.8568 14.3021 13.5535 14.5494 13.3383 14.8666C13.1231 15.1839 13.0055 15.5573 13 15.9407C13.237 20.557 14.9349 22.9122 18.4518 26.9593Z" fill="white"/>
</g>
<defs>
<clipPath id="clip0_266_126">
<rect width="50" height="50" fill="white"/>
</clipPath>
</defs>
</svg>
