<svg width="52" height="52" viewBox="0 0 52 52" fill="none" xmlns="http://www.w3.org/2000/svg">
<circle cx="26" cy="26" r="24.5" transform="rotate(-0.302119 26 26)" fill="#0A1128" stroke="#2F2F2F"/>
<path d="M22.2442 15.5197C22.2406 14.8274 22.4426 14.1497 22.8249 13.5721C23.2071 12.9945 23.7524 12.543 24.3917 12.2747C25.031 12.0064 25.7356 11.9334 26.4165 12.0649C27.0973 12.1963 27.7238 12.5264 28.2168 13.0133C28.7097 13.5002 29.047 14.122 29.1858 14.8002C29.3247 15.4785 29.259 16.1825 28.997 16.8235C28.735 17.4644 28.2884 18.0134 27.7138 18.401C27.1393 18.7886 26.4624 18.9975 25.769 19.0011C24.839 19.006 23.9453 18.642 23.2842 17.9891C22.6232 17.3362 22.2491 16.4479 22.2442 15.5197ZM39.8864 36.4269L38.3916 36.4348L36.8233 31.8359C36.5872 31.1412 36.1384 30.5382 35.5403 30.112C34.9422 29.6858 34.2251 29.4579 33.4903 29.4606L29.3306 29.4825C28.7107 29.4858 28.1148 29.2431 27.6741 28.8078C27.2335 28.3725 26.9841 27.7804 26.9808 27.1615L33.9934 27.1245C34.3034 27.1229 34.6 26.9984 34.818 26.7785C35.0361 26.5585 35.1576 26.2611 35.156 25.9517C35.1544 25.6423 35.0297 25.3462 34.8093 25.1286C34.589 24.911 34.2911 24.7896 33.9811 24.7912L26.9685 24.8282L26.95 21.3283C26.9484 21.0189 26.8237 20.7228 26.6034 20.5051C26.383 20.2875 26.0851 20.1662 25.7751 20.1678C25.4651 20.1694 25.1685 20.2939 24.9505 20.5138C24.7324 20.7338 24.6109 21.0312 24.6125 21.3406L24.6433 27.1739C24.6498 28.4115 25.1486 29.5959 26.03 30.4664C26.9113 31.337 28.103 31.8223 29.3429 31.8158L33.5026 31.7939C33.748 31.7925 33.9876 31.8683 34.1874 32.0105C34.3872 32.1527 34.5372 32.354 34.6159 32.586L36.449 37.9804C36.5277 38.2122 36.6775 38.4134 36.8771 38.5556C37.0767 38.6978 37.316 38.7737 37.5612 38.7726L39.8987 38.7602C40.2087 38.7586 40.5053 38.6341 40.7234 38.4142C40.9414 38.1942 41.063 37.8968 41.0613 37.5874C41.0597 37.278 40.935 36.9819 40.7147 36.7643C40.4943 36.5466 40.1964 36.4253 39.8864 36.4269ZM29.105 34.1364C27.2884 34.0892 25.5617 33.3367 24.2921 32.0389C23.0224 30.7411 22.3098 29.0002 22.3057 27.1862L22.2816 22.6024C22.2807 22.4352 22.2438 22.2701 22.1735 22.1184C22.1031 21.9666 22.0009 21.8317 21.8737 21.7229C21.7466 21.614 21.5974 21.5337 21.4365 21.4874C21.2755 21.4411 21.1064 21.4298 20.9407 21.4545C18.626 21.8144 16.5308 23.0281 15.0692 24.8555C13.6075 26.6829 12.8859 28.9912 13.0468 31.3241C13.2077 33.6569 14.2395 35.8446 15.9383 37.4548C17.6371 39.0649 19.8792 39.9804 22.2215 40.0201L22.3734 40.0193C23.8837 40.0118 25.3697 39.6388 26.704 38.9324C28.0383 38.2259 29.1811 37.2071 30.0345 35.9632C30.1534 35.7905 30.2235 35.5889 30.2374 35.3798C30.2513 35.1707 30.2085 34.9617 30.1136 34.7748C30.0186 34.5879 29.8749 34.4299 29.6976 34.3176C29.5204 34.2053 29.3149 34.1427 29.105 34.1364Z" fill="#006CFF"/>
</svg>
