<svg width="50" height="50" viewBox="0 0 50 50" fill="none" xmlns="http://www.w3.org/2000/svg">
<circle cx="25" cy="25" r="24.5" fill="#D72B5E" stroke="#D5D5D5"/>
<path d="M20.2995 14.5C20.2995 13.8078 20.5051 13.1311 20.8904 12.5555C21.2757 11.9799 21.8233 11.5313 22.464 11.2664C23.1047 11.0015 23.8097 10.9322 24.4899 11.0673C25.1701 11.2023 25.7948 11.5356 26.2852 12.0251C26.7756 12.5146 27.1095 13.1383 27.2448 13.8172C27.3801 14.4961 27.3107 15.1999 27.0453 15.8394C26.7799 16.4789 26.3305 17.0256 25.7539 17.4101C25.1772 17.7947 24.4993 18 23.8058 18C22.8759 18 21.984 17.6313 21.3265 16.9749C20.6689 16.3185 20.2995 15.4283 20.2995 14.5ZM37.8312 35.5H36.3363L34.7924 30.8928C34.5599 30.197 34.1143 29.5916 33.5185 29.1622C32.9227 28.7329 32.2067 28.5012 31.4719 28.5H27.3122C26.6922 28.5 26.0977 28.2542 25.6593 27.8166C25.2209 27.379 24.9746 26.7855 24.9746 26.1667H31.9873C32.2973 26.1667 32.5946 26.0438 32.8138 25.825C33.033 25.6062 33.1561 25.3094 33.1561 25C33.1561 24.6906 33.033 24.3938 32.8138 24.175C32.5946 23.9563 32.2973 23.8333 31.9873 23.8333H24.9746V20.3333C24.9746 20.0239 24.8515 19.7272 24.6323 19.5084C24.4131 19.2896 24.1158 19.1667 23.8058 19.1667C23.4959 19.1667 23.1986 19.2896 22.9794 19.5084C22.7602 19.7272 22.6371 20.0239 22.6371 20.3333V26.1667C22.6371 27.4043 23.1296 28.5913 24.0064 29.4665C24.8831 30.3417 26.0723 30.8333 27.3122 30.8333H31.4719C31.7173 30.8333 31.9565 30.9103 32.1556 31.0536C32.3546 31.1968 32.5035 31.3989 32.5811 31.6313L34.3857 37.0353C34.4631 37.2676 34.6118 37.4696 34.8107 37.6128C35.0095 37.756 35.2485 37.8331 35.4937 37.8333H37.8312C38.1412 37.8333 38.4385 37.7104 38.6577 37.4916C38.8769 37.2728 39 36.9761 39 36.6667C39 36.3572 38.8769 36.0605 38.6577 35.8417C38.4385 35.6229 38.1412 35.5 37.8312 35.5ZM27.0621 33.1527C25.2457 33.0959 23.523 32.3343 22.2602 31.0298C20.9974 29.7253 20.294 27.9807 20.2995 26.1667V21.5828C20.2995 21.4156 20.2635 21.2503 20.194 21.0982C20.1244 20.9461 20.0229 20.8107 19.8963 20.7011C19.7697 20.5916 19.621 20.5105 19.4603 20.4634C19.2996 20.4162 19.1306 20.4041 18.9647 20.4278C16.6482 20.7756 14.5466 21.9781 13.0753 23.7979C11.6041 25.6176 10.8702 27.922 11.0189 30.2557C11.1675 32.5893 12.1878 34.7825 13.878 36.4016C15.5683 38.0206 17.8055 38.9479 20.1476 39H20.2995C21.8098 39.0004 23.2978 38.6353 24.6358 37.9359C25.9738 37.2365 27.1219 36.2237 27.9819 34.9843C28.1017 34.8122 28.1729 34.6111 28.1879 34.402C28.2029 34.193 28.1612 33.9837 28.0672 33.7963C27.9732 33.6089 27.8304 33.4502 27.6537 33.337C27.477 33.2237 27.2719 33.16 27.0621 33.1527Z" fill="white"/>
</svg>
